<svg height="100%" stroke-miterlimit="10"
  style="fill-rule:nonzero;clip-rule:evenodd;stroke-linecap:round;stroke-linejoin:round;" version="1.1"
  viewBox="0 0 841.995 595.35" width="100%" xml:space="preserve" xmlns="http://www.w3.org/2000/svg"
  xmlns:vectornator="http://vectornator.io" xmlns:xlink="http://www.w3.org/1999/xlink">
  <metadata>
    <vectornator:setting key="IsTimeLapseWatermarkDisabled" value="false" />
    <vectornator:setting key="UndoHistoryDisabled" value="true" />
    <vectornator:setting key="VNDimensionsVisible" value="true" />
    <vectornator:setting key="VNSnapToGuides" value="true" />
    <vectornator:setting key="WDCMYKEnabledKey" value="false" />
    <vectornator:setting key="WDDisplayWhiteBackground" value="true" />
    <vectornator:setting key="WDDynamicGuides" value="false" />
    <vectornator:setting key="WDGuidesVisible" value="true" />
    <vectornator:setting key="WDIsolateActiveLayer" value="false" />
    <vectornator:setting key="WDOutlineMode" value="false" />
    <vectornator:setting key="WDRulersVisible" value="true" />
    <vectornator:setting key="WDSnapToEdges" value="false" />
    <vectornator:setting key="WDSnapToGrid" value="false" />
    <vectornator:setting key="WDSnapToPoints" value="false" />
    <vectornator:setting key="WDUnits" value="Millimeters" />
  </metadata>
  <defs />

  <g class="flower-rotate">

    <g id="Layer-2" vectornator:layerName="Layer 2">
      <g opacity="1">
        <path
          d="M441.531 116.969C441.115 116.99 440.726 117.173 440.312 117.219C442.552 117.099 446.475 117.417 447.031 117.469C447.038 117.667 447.11 117.888 447.312 117.938C450.123 118.787 449.15 118.423 450.094 118.781C450.986 119.12 451.882 119.54 452.719 120C456.843 122.265 460.096 125.895 462 130.188C463.466 133.494 464.095 137.142 463.875 140.75C463.709 143.468 462.978 146.114 462.344 148.75C461.643 151.661 460.918 154.558 460.219 157.469C458.866 163.095 457.536 168.716 456.188 174.344C455.37 177.758 454.64 181.199 453.625 184.562C452.177 189.357 450.395 194.061 448.562 198.719C446.312 204.438 443.914 210.119 441.312 215.688C438.726 221.224 435.945 226.688 432.812 231.938C430.824 235.27 428.7 238.559 426.156 241.5C425.745 241.975 425.24 242.535 424.781 243C423.036 244.773 419.924 247.489 417.219 246.219C414.653 245.014 413.436 241.056 412.75 238.562C410.829 231.58 410.422 224.172 410.156 216.969C409.813 207.676 410.035 198.344 410.562 189.062C410.943 182.37 411.385 175.654 412.469 169.031C412.801 167.004 413.343 165.022 413.844 163.031C414.526 160.318 415.192 157.588 415.875 154.875C417.622 147.93 419.315 140.96 421.125 134.031C421.642 132.052 422.497 130.219 423.5 128.469C423.122 129.129 422.624 129.711 422.312 130.406C421.195 132.899 420.64 135.552 419.969 138.188C419.255 140.988 418.526 143.793 417.812 146.594C416.624 151.256 415.438 155.931 414.25 160.594C413.586 163.202 412.812 165.785 412.344 168.438C411.325 174.21 410.882 180.099 410.469 185.938C409.923 193.645 409.644 201.398 409.656 209.125C409.666 214.915 409.85 220.701 410.375 226.469C410.748 230.568 411.264 234.706 412.344 238.688C413.178 241.763 414.931 247.267 419 247C421.97 246.805 424.709 243.935 426.531 241.844C431.276 236.398 434.848 229.884 438.156 223.5C441.986 216.11 445.375 208.494 448.5 200.781C450.628 195.529 452.679 190.201 454.344 184.781C455.28 181.731 455.964 178.629 456.719 175.531C457.823 170.999 458.9 166.47 460 161.938C460.974 157.927 461.965 153.886 462.938 149.875C463.418 147.89 463.951 145.91 464.344 143.906C466.087 135.022 462.529 125.562 455.031 120.375C453.397 119.244 455.01 120.369 447.5 117.062C447.256 117.002 447.029 117.131 446.969 117.375C446.962 117.401 447.002 117.412 447 117.438C446.59 117.359 445.323 117.109 444.438 117.031C443.465 116.946 442.506 116.919 441.531 116.969ZM423.5 128.469C423.67 128.171 423.848 127.883 424.031 127.594C423.846 127.886 423.673 128.168 423.5 128.469ZM424.031 127.594C424.997 126.071 426.125 124.663 427.406 123.406C426.109 124.669 425 126.065 424.031 127.594ZM427.406 123.406C427.654 123.165 427.898 122.917 428.156 122.688C427.895 122.921 427.657 123.161 427.406 123.406ZM428.156 122.688C429.311 121.654 430.627 120.811 431.969 120.031C431.174 120.483 430.297 120.765 429.562 121.312C429.036 121.705 428.646 122.252 428.156 122.688ZM431.969 120.031C432.809 119.554 433.606 119.021 434.5 118.656C433.604 119.03 432.804 119.546 431.969 120.031ZM434.5 118.656C434.903 118.488 435.305 118.331 435.719 118.188C435.301 118.329 434.909 118.49 434.5 118.656ZM435.719 118.188C437.201 117.684 438.753 117.392 440.312 117.219C440.049 117.233 439.566 117.189 439.375 117.219C438.112 117.418 436.905 117.775 435.719 118.188Z"
          fill="#000000" stroke="none" />
      </g>
      <g opacity="1">
        <path
          d="M441.531 116.969C441.115 116.99 440.726 117.173 440.312 117.219C442.552 117.099 446.475 117.417 447.031 117.469C447.038 117.667 447.11 117.888 447.312 117.938C450.123 118.787 449.15 118.423 450.094 118.781C450.986 119.12 451.882 119.54 452.719 120C456.843 122.265 460.096 125.895 462 130.188C463.466 133.494 464.095 137.142 463.875 140.75C463.709 143.468 462.978 146.114 462.344 148.75C461.643 151.661 460.918 154.558 460.219 157.469C458.866 163.095 457.536 168.716 456.188 174.344C455.37 177.758 454.64 181.199 453.625 184.562C452.177 189.357 450.395 194.061 448.562 198.719C446.312 204.438 443.914 210.119 441.312 215.688C438.726 221.224 435.945 226.688 432.812 231.938C430.824 235.27 428.7 238.559 426.156 241.5C425.745 241.975 425.24 242.535 424.781 243C423.036 244.773 419.924 247.489 417.219 246.219C414.653 245.014 413.436 241.056 412.75 238.562C410.829 231.58 410.422 224.172 410.156 216.969C409.813 207.676 410.035 198.344 410.562 189.062C410.943 182.37 411.385 175.654 412.469 169.031C412.801 167.004 413.343 165.022 413.844 163.031C414.526 160.318 415.192 157.588 415.875 154.875C417.622 147.93 419.315 140.96 421.125 134.031C421.642 132.052 422.497 130.219 423.5 128.469C423.122 129.129 422.624 129.711 422.312 130.406C421.195 132.899 420.64 135.552 419.969 138.188C419.255 140.988 418.526 143.793 417.812 146.594C416.624 151.256 415.438 155.931 414.25 160.594C413.586 163.202 412.812 165.785 412.344 168.438C411.325 174.21 410.882 180.099 410.469 185.938C409.923 193.645 409.644 201.398 409.656 209.125C409.666 214.915 409.85 220.701 410.375 226.469C410.748 230.568 411.264 234.706 412.344 238.688C413.178 241.763 414.931 247.267 419 247C421.97 246.805 424.709 243.935 426.531 241.844C431.276 236.398 434.848 229.884 438.156 223.5C441.986 216.11 445.375 208.494 448.5 200.781C450.628 195.529 452.679 190.201 454.344 184.781C455.28 181.731 455.964 178.629 456.719 175.531C457.823 170.999 458.9 166.47 460 161.938C460.974 157.927 461.965 153.886 462.938 149.875C463.418 147.89 463.951 145.91 464.344 143.906C466.087 135.022 462.529 125.562 455.031 120.375C453.397 119.244 455.01 120.369 447.5 117.062C447.256 117.002 447.029 117.131 446.969 117.375C446.962 117.401 447.002 117.412 447 117.438C446.59 117.359 445.323 117.109 444.438 117.031C443.465 116.946 442.506 116.919 441.531 116.969ZM423.5 128.469C423.67 128.171 423.848 127.883 424.031 127.594C423.846 127.886 423.673 128.168 423.5 128.469ZM424.031 127.594C424.997 126.071 426.125 124.663 427.406 123.406C426.109 124.669 425 126.065 424.031 127.594ZM427.406 123.406C427.654 123.165 427.898 122.917 428.156 122.688C427.895 122.921 427.657 123.161 427.406 123.406ZM428.156 122.688C429.311 121.654 430.627 120.811 431.969 120.031C431.174 120.483 430.297 120.765 429.562 121.312C429.036 121.705 428.646 122.252 428.156 122.688ZM431.969 120.031C432.809 119.554 433.606 119.021 434.5 118.656C433.604 119.03 432.804 119.546 431.969 120.031ZM434.5 118.656C434.903 118.488 435.305 118.331 435.719 118.188C435.301 118.329 434.909 118.49 434.5 118.656ZM435.719 118.188C437.201 117.684 438.753 117.392 440.312 117.219C440.049 117.233 439.566 117.189 439.375 117.219C438.112 117.418 436.905 117.775 435.719 118.188Z"
          fill="#000000" stroke="none" />
      </g>
      <g opacity="1">
        <path class="flower"
          d="M560.804 338.221L560.804 338.221C556.279 349.495 543.148 354.836 531.474 350.15L496.564 335.649C484.89 330.963 433.303 300.134 437.828 288.861L437.828 288.861C442.353 277.587 505.958 291.689 517.631 296.374L547.861 309.324C559.534 314.009 565.329 326.947 560.804 338.221Z"
          fill="#e7b200" fill-rule="evenodd" stroke="none" />
        <path
          d="M452.75 284.375C450.682 284.363 448.613 284.434 446.562 284.656C443.394 285 437.684 285.877 437.312 289.938C437.042 292.902 439.469 296.093 441.25 298.219C445.888 303.756 451.742 308.267 457.531 312.531C464.233 317.467 471.244 322.022 478.375 326.312C483.231 329.234 488.156 332.072 493.25 334.562C496.116 335.964 499.089 337.114 502.031 338.344C506.335 340.142 510.632 341.956 514.938 343.75C518.747 345.338 522.565 346.914 526.375 348.5C528.26 349.285 530.145 350.143 532.062 350.844C540.566 353.952 550.487 351.909 556.781 345.312C558.153 343.874 556.78 345.308 561.219 338.406C561.316 338.175 561.2 337.91 560.969 337.812C560.958 337.808 560.948 337.816 560.938 337.812C561.083 337.408 561.505 336.232 561.719 335.375C561.955 334.428 562.147 333.471 562.25 332.5C562.294 332.083 562.168 331.668 562.188 331.25C561.956 333.477 561.048 337.287 560.906 337.844C560.695 337.796 560.462 337.825 560.375 338.031C559.097 340.675 559.595 339.811 559.094 340.688C558.619 341.516 558.085 342.308 557.5 343.062C554.619 346.782 550.506 349.446 545.969 350.656C542.474 351.589 538.78 351.656 535.25 350.875C532.591 350.287 530.129 349.132 527.625 348.094C524.859 346.948 522.078 345.802 519.312 344.656C513.966 342.442 508.629 340.21 503.281 338C500.036 336.659 496.726 335.403 493.562 333.875C489.053 331.697 484.69 329.225 480.375 326.688C475.077 323.572 469.875 320.314 464.781 316.875C459.717 313.456 454.727 309.882 450.031 305.969C447.05 303.484 444.133 300.847 441.625 297.875C441.22 297.395 440.763 296.807 440.375 296.281C438.896 294.281 436.698 290.787 438.375 288.312C439.965 285.967 444.055 285.382 446.625 285.094C453.822 284.286 461.219 285.045 468.375 285.906C477.607 287.018 486.79 288.687 495.875 290.656C502.426 292.076 509.003 293.552 515.375 295.656C517.326 296.3 519.174 297.163 521.062 297.969C523.636 299.067 526.208 300.152 528.781 301.25C535.368 304.06 542.001 306.819 548.562 309.688C550.412 310.496 552.101 311.602 553.656 312.844C553.079 312.382 552.588 311.811 551.969 311.406C549.681 309.913 547.124 308.95 544.625 307.875C541.97 306.733 539.311 305.58 536.656 304.438C532.236 302.536 527.826 300.651 523.406 298.75C520.934 297.687 518.484 296.532 515.938 295.656C510.395 293.749 504.672 292.382 498.969 291.062C491.441 289.32 483.822 287.819 476.188 286.625C470.467 285.73 464.716 285.006 458.938 284.625C456.884 284.489 454.818 284.387 452.75 284.375ZM553.656 312.844C553.985 313.107 554.311 313.376 554.625 313.656C554.307 313.373 553.99 313.11 553.656 312.844ZM554.625 313.656C555.87 314.767 556.96 316 557.938 317.344C556.96 315.994 555.869 314.766 554.625 313.656ZM557.938 317.344C558.215 317.726 558.497 318.101 558.75 318.5C558.493 318.097 558.219 317.73 557.938 317.344ZM558.75 318.5C559.577 319.797 560.2 321.218 560.75 322.656C560.421 321.772 560.252 320.837 559.812 320C559.526 319.455 559.079 319.019 558.75 318.5ZM560.75 322.656C561.06 323.488 561.417 324.295 561.625 325.156C561.409 324.292 561.067 323.485 560.75 322.656ZM561.625 325.156C561.747 325.644 561.881 326.128 561.969 326.625C561.884 326.124 561.745 325.651 561.625 325.156ZM561.969 326.625C562.227 328.147 562.258 329.704 562.188 331.25C562.215 330.985 562.344 330.507 562.344 330.312C562.344 329.054 562.184 327.842 561.969 326.625Z"
          fill="#2a5c1e" stroke="none" />
      </g>
      <g opacity="1">
        <path class="flower"
          d="M575.084 251.343L575.084 251.343C577.095 263.324 568.669 274.724 556.264 276.806L518.911 282.616C506.506 284.699 446.411 285.26 444.4 273.28L444.4 273.28C442.389 261.3 504.027 240.199 516.432 238.117L548.981 233.421C561.386 231.339 573.073 239.363 575.084 251.343Z"
          fill="#e7b200" fill-rule="evenodd" stroke="none" />
        <path
          d="M553.594 233.062C550.863 232.98 548.161 233.491 545.469 233.875C542.607 234.283 539.768 234.685 536.906 235.094C532.143 235.774 527.357 236.445 522.594 237.125C519.93 237.505 517.255 237.796 514.625 238.375C508.901 239.635 503.274 241.468 497.719 243.312C490.385 245.748 483.138 248.448 476 251.406C470.652 253.623 465.35 255.971 460.219 258.656C456.571 260.565 452.957 262.608 449.688 265.125C447.478 266.826 443.798 269.901 444.125 273.094C444.172 273.55 444.306 274.011 444.531 274.469C445.844 277.14 449.56 278.582 452.188 279.469C459.031 281.778 466.4 282.595 473.562 283.219C481.855 283.941 490.178 284.178 498.5 284.125C504.167 284.089 509.855 283.935 515.5 283.406C518.677 283.109 521.848 282.546 525 282.062C529.611 281.355 534.203 280.649 538.812 279.938C542.892 279.308 546.984 278.694 551.062 278.062C553.081 277.75 555.123 277.495 557.125 277.094C566.003 275.317 573.408 268.378 575.344 259.469C575.555 258.498 575.56 258.501 575.531 257.719C575.503 256.936 575.435 255.383 575.531 251.281C575.494 251.033 575.28 250.869 575.031 250.906C575.014 250.909 575.016 250.933 575 250.938C574.915 250.523 574.64 249.283 574.375 248.438C574.083 247.506 573.731 246.601 573.312 245.719C573.144 245.364 572.843 245.094 572.656 244.75C573.616 246.789 574.798 250.416 574.969 250.969C574.775 251.044 574.593 251.192 574.625 251.406C574.912 254.329 574.878 253.335 574.906 254.344C574.933 255.298 574.918 256.239 574.812 257.188C574.291 261.864 572.149 266.29 568.906 269.688C566.409 272.304 563.295 274.265 559.875 275.438C557.299 276.321 554.585 276.644 551.906 277.062C548.948 277.525 545.989 277.974 543.031 278.438C537.314 279.333 531.591 280.225 525.875 281.125C522.407 281.671 518.934 282.312 515.438 282.656C510.453 283.146 505.442 283.324 500.438 283.406C494.292 283.507 488.14 283.438 482 283.156C475.896 282.876 469.766 282.394 463.719 281.5C459.879 280.933 456.033 280.23 452.344 279C451.747 278.801 451.043 278.527 450.438 278.281C448.133 277.344 444.451 275.517 444.594 272.531C444.729 269.701 447.894 267.085 449.938 265.5C455.66 261.061 462.38 257.837 468.938 254.844C477.397 250.983 486.094 247.615 494.875 244.562C501.207 242.362 507.59 240.211 514.125 238.688C516.126 238.221 518.156 237.984 520.188 237.688C522.956 237.284 525.732 236.872 528.5 236.469C535.586 235.435 542.655 234.313 549.75 233.344C551.749 233.071 553.777 233.157 555.75 233.406C555.025 233.315 554.325 233.085 553.594 233.062ZM555.75 233.406C556.149 233.456 556.542 233.523 556.938 233.594C556.538 233.522 556.153 233.457 555.75 233.406ZM556.938 233.594C558.683 233.907 560.376 234.399 562 235.094C560.367 234.39 558.687 233.907 556.938 233.594ZM562 235.094C562.317 235.23 562.627 235.38 562.938 235.531C562.623 235.38 562.321 235.231 562 235.094ZM562.938 235.531C564.322 236.199 565.589 237.067 566.812 238C566.106 237.452 565.518 236.772 564.75 236.312C564.183 235.973 563.53 235.819 562.938 235.531ZM566.812 238C567.601 238.612 568.426 239.164 569.125 239.875C568.419 239.166 567.604 238.604 566.812 238ZM569.125 239.875C569.41 240.161 569.699 240.448 569.969 240.75C569.698 240.442 569.413 240.168 569.125 239.875ZM569.969 240.75C571.031 241.958 571.885 243.334 572.656 244.75C572.533 244.489 572.389 243.99 572.281 243.812C571.607 242.706 570.816 241.7 569.969 240.75Z"
          fill="#2a5c1e" stroke="none" />
      </g>
      <g opacity="1">
        <path class="flower"
          d="M248.667 287.954L248.667 287.954C248.687 275.806 258.9 265.975 271.478 265.995L309.277 266.51C321.856 266.53 381.199 276.021 381.179 288.169L381.179 288.169C381.16 300.317 316.862 310.818 304.284 310.798L271.407 309.987C258.828 309.967 248.647 300.102 248.667 287.954Z"
          fill="#e7b200" fill-rule="evenodd" stroke="none" />
        <path
          d="M270.688 265.562C261.637 265.831 253.179 271.414 249.781 279.875C249.04 281.72 249.78 279.882 248.219 287.938C248.214 288.189 248.405 288.402 248.656 288.406C248.674 288.407 248.671 288.377 248.688 288.375C248.702 288.792 248.755 290.057 248.875 290.938C249.007 291.904 249.204 292.873 249.469 293.812C249.585 294.224 249.859 294.566 250 294.969C249.384 292.83 248.794 288.911 248.719 288.344C248.922 288.302 249.121 288.185 249.125 287.969C249.331 285.039 249.172 286.031 249.312 285.031C249.446 284.086 249.675 283.137 249.938 282.219C251.233 277.696 254.048 273.714 257.812 270.906C261.116 268.443 265.089 266.93 269.188 266.531C271.51 266.306 273.859 266.47 276.188 266.5C279.337 266.54 282.506 266.554 285.656 266.594C291.169 266.662 296.675 266.748 302.188 266.812C305.692 266.854 309.22 266.786 312.719 267.031C317.715 267.381 322.677 268.057 327.625 268.812C333.701 269.74 339.744 270.853 345.75 272.156C351.721 273.452 357.687 274.952 363.5 276.844C367.19 278.045 370.881 279.389 374.312 281.219C374.867 281.515 375.507 281.875 376.062 282.219C378.178 283.528 381.514 285.955 380.875 288.875C380.269 291.643 376.686 293.716 374.406 294.938C368.023 298.358 360.871 300.395 353.906 302.25C344.921 304.643 335.793 306.49 326.625 308.031C320.015 309.143 313.354 310.215 306.656 310.625C304.499 310.757 302.347 310.644 300.188 310.594C297.79 310.538 295.397 310.493 293 310.438C286.173 310.28 279.327 310.168 272.5 309.969C273.169 309.984 273.831 310.107 274.5 310.125C277.582 310.206 280.637 310.294 283.719 310.375C288.513 310.5 293.331 310.625 298.125 310.75C300.788 310.82 303.462 310.974 306.125 310.844C311.979 310.558 317.808 309.703 323.594 308.812C331.231 307.637 338.842 306.192 346.375 304.469C352.019 303.177 357.648 301.727 363.156 299.938C367.071 298.665 370.981 297.248 374.625 295.312C377.088 294.005 381.195 291.577 381.406 288.375C381.436 287.918 381.395 287.457 381.25 286.969C380.402 284.116 376.974 282.064 374.531 280.75C368.469 277.49 361.715 275.544 355.094 273.781C346.718 271.552 338.177 269.831 329.625 268.438C324.032 267.526 318.404 266.704 312.75 266.281C309.629 266.048 306.502 266.081 303.375 266.031C298.65 265.957 293.912 265.882 289.188 265.812C285.25 265.754 281.312 265.713 277.375 265.656C275.144 265.624 272.918 265.496 270.688 265.562ZM272.5 309.969C271.571 309.948 270.644 309.85 269.719 309.781C270.027 309.804 270.315 309.928 270.625 309.938C271.249 309.958 271.876 309.951 272.5 309.969ZM269.719 309.781C268.047 309.659 266.401 309.381 264.812 308.906C265.486 309.107 266.122 309.424 266.812 309.562C267.77 309.755 268.752 309.709 269.719 309.781ZM264.812 308.906C264.389 308.78 263.978 308.619 263.562 308.469C263.982 308.621 264.384 308.778 264.812 308.906ZM263.562 308.469C261.906 307.869 260.318 307.075 258.844 306.125C260.332 307.092 261.894 307.866 263.562 308.469ZM258.844 306.125C258.565 305.944 258.271 305.787 258 305.594C258.274 305.788 258.561 305.943 258.844 306.125ZM258 305.594C256.705 304.677 255.578 303.573 254.5 302.406C255.129 303.098 255.632 303.892 256.344 304.5C256.848 304.931 257.461 305.209 258 305.594ZM254.5 302.406C253.886 301.73 253.245 301.089 252.719 300.344C253.253 301.09 253.88 301.735 254.5 302.406ZM252.719 300.344C252.439 299.954 252.16 299.565 251.906 299.156C252.16 299.571 252.438 299.946 252.719 300.344ZM251.906 299.156C251.102 297.842 250.509 296.427 250 294.969C250.069 295.207 250.119 295.673 250.188 295.844C250.655 297.015 251.253 298.104 251.906 299.156Z"
          fill="#2a5c1e" stroke="none" />
      </g>
      <g opacity="1">
        <path class="flower"
          d="M264.585 206.449L264.585 206.449C269.574 195.373 282.916 190.582 294.385 195.748L328.663 211.686C340.132 216.852 390.395 249.797 385.405 260.873L385.405 260.873C380.416 271.949 317.452 255.218 305.983 250.052L276.317 235.859C264.848 230.693 259.595 217.525 264.585 206.449Z"
          fill="#e7b200" fill-rule="evenodd" stroke="none" />
        <path
          d="M287.312 193.406C280.661 192.704 273.828 194.784 268.906 199.531C267.476 200.911 268.909 199.539 264.188 206.25C264.081 206.477 264.179 206.768 264.406 206.875C264.417 206.88 264.427 206.871 264.438 206.875C264.266 207.296 263.777 208.415 263.531 209.25C263.256 210.186 263.049 211.16 262.906 212.125C262.846 212.531 262.942 212.935 262.906 213.344C263.229 211.142 264.291 207.44 264.469 206.844C264.677 206.9 264.905 206.859 265 206.656C266.387 204.068 265.837 204.917 266.375 204.062C266.883 203.254 267.447 202.48 268.062 201.75C271.096 198.153 275.322 195.677 279.906 194.656C283.929 193.76 288.16 193.999 292.062 195.312C294.274 196.057 296.388 197.145 298.5 198.125C301.358 199.451 304.204 200.769 307.062 202.094C312.064 204.412 317.059 206.747 322.062 209.062C325.243 210.534 328.471 211.907 331.562 213.562C335.978 215.926 340.263 218.598 344.469 221.312C349.633 224.645 354.678 228.134 359.625 231.781C364.543 235.408 369.377 239.176 373.906 243.281C376.782 245.888 379.586 248.645 381.969 251.719C382.354 252.216 382.79 252.803 383.156 253.344C384.551 255.404 386.622 258.973 384.844 261.375C383.158 263.653 379.048 264.1 376.469 264.281C369.245 264.789 361.864 263.72 354.75 262.562C345.572 261.069 336.496 259.033 327.5 256.688C321.013 254.997 314.498 253.211 308.219 250.844C306.296 250.119 304.447 249.227 302.594 248.344C300.068 247.14 297.557 245.922 295.031 244.719C288.566 241.638 282.062 238.608 275.625 235.469C273.824 234.591 272.213 233.418 270.719 232.125C271.263 232.596 271.695 233.175 272.281 233.594C274.505 235.181 277.017 236.26 279.469 237.438C282.074 238.689 284.676 239.936 287.281 241.188C291.619 243.271 295.975 245.354 300.312 247.438C302.738 248.603 305.117 249.863 307.625 250.844C313.084 252.979 318.763 254.57 324.406 256.125C331.856 258.178 339.39 259.99 346.969 261.5C352.647 262.631 358.367 263.598 364.125 264.219C368.218 264.66 372.383 264.993 376.5 264.719C379.68 264.507 385.398 263.854 385.938 259.812C386.331 256.862 384.066 253.604 382.375 251.406C378.177 245.951 372.82 241.381 367.5 237.062C360.771 231.601 353.702 226.553 346.469 221.781C341.738 218.661 336.923 215.606 331.938 212.906C329.185 211.416 326.302 210.169 323.469 208.844C319.188 206.842 314.907 204.841 310.625 202.844C307.056 201.179 303.476 199.507 299.906 197.844C297.883 196.901 295.906 195.884 293.844 195.031C291.752 194.167 289.53 193.64 287.312 193.406ZM270.719 232.125C270.388 231.839 270.064 231.554 269.75 231.25C270.067 231.557 270.385 231.836 270.719 232.125ZM269.75 231.25C268.494 230.032 267.388 228.679 266.438 227.219C267.391 228.693 268.489 230.028 269.75 231.25ZM266.438 227.219C266.257 226.94 266.074 226.661 265.906 226.375C266.077 226.665 266.254 226.937 266.438 227.219ZM265.906 226.375C265.102 225.014 264.507 223.562 264 222.062C264.287 222.935 264.419 223.855 264.812 224.688C265.1 225.294 265.567 225.797 265.906 226.375ZM264 222.062C263.703 221.161 263.367 220.275 263.188 219.344C263.374 220.282 263.695 221.161 264 222.062ZM263.188 219.344C263.103 218.917 262.997 218.495 262.938 218.062C262.995 218.5 263.104 218.91 263.188 219.344ZM262.938 218.062C262.731 216.493 262.766 214.924 262.906 213.344C262.867 213.609 262.727 214.086 262.719 214.281C262.665 215.559 262.767 216.818 262.938 218.062Z"
          fill="#2a5c1e" stroke="none" />
      </g>
      <g opacity="1">
        <path class="flower"
          d="M342.764 121.629L342.764 121.629C354.051 117.136 366.972 122.967 371.624 134.654L385.183 169.941C389.835 181.627 403.061 240.251 391.775 244.744L391.775 244.744C380.488 249.237 346.86 193.438 342.208 181.751L330.751 150.924C326.099 139.238 331.477 126.122 342.764 121.629Z"
          fill="#e7b200" fill-rule="evenodd" stroke="none" />
        <path
          d="M350.656 119.656C348.669 119.653 350.653 119.646 342.594 121.188C342.359 121.277 342.255 121.546 342.344 121.781C342.349 121.796 342.368 121.799 342.375 121.812C342.378 121.811 342.404 121.814 342.406 121.812C342.517 121.999 342.727 122.142 342.938 122.062C345.734 121.166 344.738 121.397 345.719 121.156C346.646 120.929 347.582 120.753 348.531 120.656C353.212 120.18 357.995 121.328 362 123.781C365.084 125.67 367.664 128.311 369.531 131.406C370.938 133.738 371.807 136.345 372.781 138.875C373.857 141.669 374.923 144.457 376 147.25C378.081 152.649 380.165 158.04 382.25 163.438C383.515 166.713 384.895 169.968 385.969 173.312C387.499 178.081 388.708 182.969 389.844 187.844C391.238 193.829 392.48 199.845 393.5 205.906C394.514 211.932 395.348 218.025 395.75 224.125C396.005 227.998 396.112 231.916 395.688 235.781C395.619 236.406 395.519 237.138 395.406 237.781C394.976 240.232 393.948 244.228 391 244.719C388.205 245.184 384.98 242.632 383 240.969C377.454 236.312 372.871 230.434 368.562 224.656C363.004 217.202 357.898 209.408 353.062 201.469C349.576 195.744 346.118 189.942 343.25 183.875C342.372 182.018 341.687 180.08 340.969 178.156C339.99 175.535 339.01 172.934 338.031 170.312C335.526 163.603 332.976 156.919 330.531 150.188C329.844 148.296 329.486 146.32 329.312 144.344C329.376 145.063 329.306 145.789 329.438 146.5C329.933 149.187 330.994 151.699 331.938 154.25C332.94 156.961 333.935 159.664 334.938 162.375C336.607 166.888 338.268 171.425 339.938 175.938C340.871 178.462 341.723 181.02 342.844 183.469C345.283 188.799 348.244 193.896 351.219 198.938C355.146 205.592 359.321 212.115 363.719 218.469C367.014 223.229 370.449 227.926 374.156 232.375C376.791 235.538 379.569 238.648 382.719 241.312C384.544 242.856 387.562 245.23 390.312 245.25C391.229 245.257 392.107 244.976 392.906 244.344C395.24 242.497 395.875 238.6 396.188 235.844C396.391 234.05 396.504 232.219 396.531 230.406C396.614 224.969 396.02 219.506 395.344 214.156C394.3 205.898 392.776 197.686 390.969 189.562C389.738 184.031 388.395 178.5 386.688 173.094C385.727 170.051 384.512 167.104 383.375 164.125C381.711 159.767 380.043 155.387 378.375 151.031C376.899 147.177 375.415 143.323 373.938 139.469C373.207 137.562 372.533 135.623 371.719 133.75C368.109 125.447 359.774 119.669 350.656 119.656ZM329.312 144.344C329.276 143.927 329.264 143.512 329.25 143.094C329.264 143.515 329.276 143.923 329.312 144.344ZM329.25 143.094C329.193 141.385 329.312 139.673 329.625 138C329.304 139.69 329.191 141.375 329.25 143.094ZM329.625 138C329.706 137.572 329.769 137.142 329.875 136.719C329.77 137.145 329.706 137.569 329.625 138ZM329.875 136.719C330.222 135.312 330.799 133.973 331.406 132.656C331.045 133.422 330.522 134.103 330.25 134.906C330.051 135.492 330.025 136.119 329.875 136.719ZM331.406 132.656C331.864 131.687 332.284 130.705 332.875 129.812C332.285 130.717 331.856 131.681 331.406 132.656ZM332.875 129.812C333.081 129.497 333.277 129.18 333.5 128.875C333.273 129.182 333.086 129.495 332.875 129.812ZM333.5 128.875C334.435 127.61 335.561 126.504 336.75 125.469C336.553 125.622 336.134 125.841 336 125.969C335.062 126.86 334.249 127.849 333.5 128.875ZM336.75 125.469C338.498 124.112 341.833 122.117 342.375 121.812C341.985 121.984 340.832 122.469 340.062 122.906C339.214 123.388 338.399 123.937 337.625 124.531C337.284 124.793 337.074 125.187 336.75 125.469Z"
          fill="#2a5c1e" stroke="none" />
      </g>
      <g opacity="1">
        <path class="flower"
          d="M520.735 153.113L520.735 153.113C530.369 160.513 531.969 174.598 524.308 184.574L500.925 214.277C493.263 224.253 449.658 265.609 440.024 258.21L440.024 258.21C430.389 250.811 461.13 193.37 468.791 183.394L489.417 157.779C497.079 147.803 511.1 145.714 520.735 153.113Z"
          fill="#e7b200" fill-rule="evenodd" stroke="none" />
        <path
          d="M507.031 148.719C506.521 148.735 506.038 148.948 505.531 149C506.562 148.905 507.592 148.733 508.625 148.781C508.09 148.76 507.565 148.701 507.031 148.719ZM508.625 148.781C509.014 148.797 509.393 148.807 509.781 148.844C509.394 148.805 509.014 148.8 508.625 148.781ZM509.781 148.844C511.376 149.003 512.913 149.429 514.438 149.938C514.173 149.831 513.729 149.556 513.531 149.5C512.291 149.152 511.041 148.963 509.781 148.844ZM514.438 149.938C516.513 150.768 519.831 152.594 520.375 152.906C520.268 153.098 520.26 153.328 520.438 153.469C522.639 155.413 521.948 154.687 522.656 155.406C523.326 156.087 523.931 156.827 524.5 157.594C527.304 161.372 528.777 166.054 528.719 170.75C528.674 174.367 527.735 177.937 526.031 181.125C524.747 183.527 522.956 185.587 521.281 187.719C519.431 190.073 517.568 192.427 515.719 194.781C512.144 199.332 508.571 203.884 505 208.438C502.833 211.2 500.762 214.054 498.438 216.688C495.123 220.442 491.545 223.968 487.938 227.438C483.508 231.698 478.967 235.835 474.281 239.812C469.623 243.767 464.817 247.597 459.781 251.062C456.584 253.263 453.257 255.356 449.719 256.969C449.146 257.23 448.486 257.518 447.875 257.75C445.55 258.634 441.586 259.814 439.656 257.531C437.826 255.367 438.366 251.271 438.781 248.719C439.945 241.571 442.646 234.658 445.406 228C448.967 219.41 453.058 211.029 457.406 202.812C460.541 196.888 463.755 190.943 467.5 185.375C468.706 183.581 470.085 181.934 471.438 180.25C472.939 178.38 474.436 176.526 475.938 174.656C480.219 169.323 484.467 163.933 488.781 158.625C488.356 159.155 487.865 159.627 487.438 160.156C485.5 162.555 483.562 164.945 481.625 167.344C478.611 171.075 475.607 174.8 472.594 178.531C470.92 180.604 469.141 182.619 467.625 184.812C464.293 189.635 461.435 194.802 458.625 199.938C454.916 206.716 451.459 213.627 448.25 220.656C445.845 225.923 443.551 231.257 441.625 236.719C440.256 240.601 439.022 244.587 438.344 248.656C437.82 251.8 437.127 257.547 440.938 259C441.633 259.265 442.379 259.349 443.156 259.344C445.487 259.327 448.042 258.294 449.938 257.438C456.52 254.465 462.457 250.049 468.125 245.625C474.686 240.504 480.976 234.99 487.031 229.281C491.155 225.394 495.197 221.421 498.969 217.188C501.091 214.805 503.022 212.251 505 209.75C507.893 206.091 510.798 202.412 513.688 198.75C516.244 195.51 518.788 192.272 521.344 189.031C522.608 187.428 523.932 185.845 525.125 184.188C530.413 176.838 531.122 166.747 526.469 158.906C525.454 157.197 526.479 158.886 521.031 152.75C520.834 152.594 520.531 152.647 520.375 152.844C520.367 152.853 520.382 152.865 520.375 152.875C520.011 152.616 519.01 151.902 518.25 151.469C517.402 150.986 516.501 150.548 515.594 150.188C515.224 150.04 514.814 150.063 514.438 149.938ZM488.781 158.625C489.336 157.934 489.945 157.287 490.531 156.625C490.349 156.832 490.112 156.974 489.938 157.188C489.549 157.663 489.169 158.148 488.781 158.625ZM490.531 156.625C491.672 155.329 492.928 154.156 494.312 153.156C493.73 153.577 493.073 153.901 492.531 154.375C491.772 155.04 491.196 155.875 490.531 156.625ZM494.312 153.156C494.666 152.901 495.039 152.673 495.406 152.438C495.035 152.674 494.67 152.898 494.312 153.156ZM495.406 152.438C496.858 151.51 498.419 150.773 500.031 150.188C498.399 150.775 496.867 151.502 495.406 152.438ZM500.031 150.188C500.4 150.055 500.75 149.895 501.125 149.781C500.749 149.897 500.401 150.053 500.031 150.188ZM501.125 149.781C502.552 149.343 504.044 149.151 505.531 149C504.657 149.081 503.766 148.973 502.906 149.156C502.285 149.289 501.732 149.597 501.125 149.781Z"
          fill="#2a5c1e" stroke="none" />
      </g>
      <g opacity="1">
        <path
          d="M441.531 116.969C441.115 116.99 440.726 117.173 440.312 117.219C442.552 117.099 446.475 117.417 447.031 117.469C447.038 117.667 447.11 117.888 447.312 117.938C450.123 118.787 449.15 118.423 450.094 118.781C450.986 119.12 451.882 119.54 452.719 120C456.843 122.265 460.096 125.895 462 130.188C463.466 133.494 464.095 137.142 463.875 140.75C463.709 143.468 462.978 146.114 462.344 148.75C461.643 151.661 460.918 154.558 460.219 157.469C458.866 163.095 457.536 168.716 456.188 174.344C455.37 177.758 454.64 181.199 453.625 184.562C452.177 189.357 450.395 194.061 448.562 198.719C446.312 204.438 443.914 210.119 441.312 215.688C438.726 221.224 435.945 226.688 432.812 231.938C430.824 235.27 428.7 238.559 426.156 241.5C425.745 241.975 425.24 242.535 424.781 243C423.036 244.773 419.924 247.489 417.219 246.219C414.653 245.014 413.436 241.056 412.75 238.562C410.829 231.58 410.422 224.172 410.156 216.969C409.813 207.676 410.035 198.344 410.562 189.062C410.943 182.37 411.385 175.654 412.469 169.031C412.801 167.004 413.343 165.022 413.844 163.031C414.526 160.318 415.192 157.588 415.875 154.875C417.622 147.93 419.315 140.96 421.125 134.031C421.642 132.052 422.497 130.219 423.5 128.469C423.122 129.129 422.624 129.711 422.312 130.406C421.195 132.899 420.64 135.552 419.969 138.188C419.255 140.988 418.526 143.793 417.812 146.594C416.624 151.256 415.438 155.931 414.25 160.594C413.586 163.202 412.812 165.785 412.344 168.438C411.325 174.21 410.882 180.099 410.469 185.938C409.923 193.645 409.644 201.398 409.656 209.125C409.666 214.915 409.85 220.701 410.375 226.469C410.748 230.568 411.264 234.706 412.344 238.688C413.178 241.763 414.931 247.267 419 247C421.97 246.805 424.709 243.935 426.531 241.844C431.276 236.398 434.848 229.884 438.156 223.5C441.986 216.11 445.375 208.494 448.5 200.781C450.628 195.529 452.679 190.201 454.344 184.781C455.28 181.731 455.964 178.629 456.719 175.531C457.823 170.999 458.9 166.47 460 161.938C460.974 157.927 461.965 153.886 462.938 149.875C463.418 147.89 463.951 145.91 464.344 143.906C466.087 135.022 462.529 125.562 455.031 120.375C453.397 119.244 455.01 120.369 447.5 117.062C447.256 117.002 447.029 117.131 446.969 117.375C446.962 117.401 447.002 117.412 447 117.438C446.59 117.359 445.323 117.109 444.438 117.031C443.465 116.946 442.506 116.919 441.531 116.969ZM423.5 128.469C423.67 128.171 423.848 127.883 424.031 127.594C423.846 127.886 423.673 128.168 423.5 128.469ZM424.031 127.594C424.997 126.071 426.125 124.663 427.406 123.406C426.109 124.669 425 126.065 424.031 127.594ZM427.406 123.406C427.654 123.165 427.898 122.917 428.156 122.688C427.895 122.921 427.657 123.161 427.406 123.406ZM428.156 122.688C429.311 121.654 430.627 120.811 431.969 120.031C431.174 120.483 430.297 120.765 429.562 121.312C429.036 121.705 428.646 122.252 428.156 122.688ZM431.969 120.031C432.809 119.554 433.606 119.021 434.5 118.656C433.604 119.03 432.804 119.546 431.969 120.031ZM434.5 118.656C434.903 118.488 435.305 118.331 435.719 118.188C435.301 118.329 434.909 118.49 434.5 118.656ZM435.719 118.188C437.201 117.684 438.753 117.392 440.312 117.219C440.049 117.233 439.566 117.189 439.375 117.219C438.112 117.418 436.905 117.775 435.719 118.188Z"
          fill="#000000" stroke="none" />
      </g>
      <g opacity="1">
        <path
          d="M441.531 116.969C441.115 116.99 440.726 117.173 440.312 117.219C442.552 117.099 446.475 117.417 447.031 117.469C447.038 117.667 447.11 117.888 447.312 117.938C450.123 118.787 449.15 118.423 450.094 118.781C450.986 119.12 451.882 119.54 452.719 120C456.843 122.265 460.096 125.895 462 130.188C463.466 133.494 464.095 137.142 463.875 140.75C463.709 143.468 462.978 146.114 462.344 148.75C461.643 151.661 460.918 154.558 460.219 157.469C458.866 163.095 457.536 168.716 456.188 174.344C455.37 177.758 454.64 181.199 453.625 184.562C452.177 189.357 450.395 194.061 448.562 198.719C446.312 204.438 443.914 210.119 441.312 215.688C438.726 221.224 435.945 226.688 432.812 231.938C430.824 235.27 428.7 238.559 426.156 241.5C425.745 241.975 425.24 242.535 424.781 243C423.036 244.773 419.924 247.489 417.219 246.219C414.653 245.014 413.436 241.056 412.75 238.562C410.829 231.58 410.422 224.172 410.156 216.969C409.813 207.676 410.035 198.344 410.562 189.062C410.943 182.37 411.385 175.654 412.469 169.031C412.801 167.004 413.343 165.022 413.844 163.031C414.526 160.318 415.192 157.588 415.875 154.875C417.622 147.93 419.315 140.96 421.125 134.031C421.642 132.052 422.497 130.219 423.5 128.469C423.122 129.129 422.624 129.711 422.312 130.406C421.195 132.899 420.64 135.552 419.969 138.188C419.255 140.988 418.526 143.793 417.812 146.594C416.624 151.256 415.438 155.931 414.25 160.594C413.586 163.202 412.812 165.785 412.344 168.438C411.325 174.21 410.882 180.099 410.469 185.938C409.923 193.645 409.644 201.398 409.656 209.125C409.666 214.915 409.85 220.701 410.375 226.469C410.748 230.568 411.264 234.706 412.344 238.688C413.178 241.763 414.931 247.267 419 247C421.97 246.805 424.709 243.935 426.531 241.844C431.276 236.398 434.848 229.884 438.156 223.5C441.986 216.11 445.375 208.494 448.5 200.781C450.628 195.529 452.679 190.201 454.344 184.781C455.28 181.731 455.964 178.629 456.719 175.531C457.823 170.999 458.9 166.47 460 161.938C460.974 157.927 461.965 153.886 462.938 149.875C463.418 147.89 463.951 145.91 464.344 143.906C466.087 135.022 462.529 125.562 455.031 120.375C453.397 119.244 455.01 120.369 447.5 117.062C447.256 117.002 447.029 117.131 446.969 117.375C446.962 117.401 447.002 117.412 447 117.438C446.59 117.359 445.323 117.109 444.438 117.031C443.465 116.946 442.506 116.919 441.531 116.969ZM423.5 128.469C423.67 128.171 423.848 127.883 424.031 127.594C423.846 127.886 423.673 128.168 423.5 128.469ZM424.031 127.594C424.997 126.071 426.125 124.663 427.406 123.406C426.109 124.669 425 126.065 424.031 127.594ZM427.406 123.406C427.654 123.165 427.898 122.917 428.156 122.688C427.895 122.921 427.657 123.161 427.406 123.406ZM428.156 122.688C429.311 121.654 430.627 120.811 431.969 120.031C431.174 120.483 430.297 120.765 429.562 121.312C429.036 121.705 428.646 122.252 428.156 122.688ZM431.969 120.031C432.809 119.554 433.606 119.021 434.5 118.656C433.604 119.03 432.804 119.546 431.969 120.031ZM434.5 118.656C434.903 118.488 435.305 118.331 435.719 118.188C435.301 118.329 434.909 118.49 434.5 118.656ZM435.719 118.188C437.201 117.684 438.753 117.392 440.312 117.219C440.049 117.233 439.566 117.189 439.375 117.219C438.112 117.418 436.905 117.775 435.719 118.188Z"
          fill="#000000" stroke="none" />
      </g>
      <g opacity="1">
        <path class="flower"
          d="M447.406 117.496L447.406 117.496C459.248 120.205 466.573 132.342 463.767 144.604L454.893 181.35C452.088 193.611 429.689 249.379 417.847 246.669L417.847 246.669C406.005 243.96 410.006 178.933 412.812 166.671L420.884 134.791C423.689 122.529 435.564 114.786 447.406 117.496Z"
          fill="#e7b200" fill-rule="evenodd" stroke="none" />
        <path
          d="M441.531 116.969C441.115 116.99 440.726 117.173 440.312 117.219C442.552 117.099 446.475 117.417 447.031 117.469C447.038 117.667 447.11 117.888 447.312 117.938C450.123 118.787 449.15 118.423 450.094 118.781C450.986 119.12 451.882 119.54 452.719 120C456.843 122.265 460.096 125.895 462 130.188C463.466 133.494 464.095 137.142 463.875 140.75C463.709 143.468 462.978 146.114 462.344 148.75C461.643 151.661 460.918 154.558 460.219 157.469C458.866 163.095 457.536 168.716 456.188 174.344C455.37 177.758 454.64 181.199 453.625 184.562C452.177 189.357 450.395 194.061 448.562 198.719C446.312 204.438 443.914 210.119 441.312 215.688C438.726 221.224 435.945 226.688 432.812 231.938C430.824 235.27 428.7 238.559 426.156 241.5C425.745 241.975 425.24 242.535 424.781 243C423.036 244.773 419.924 247.489 417.219 246.219C414.653 245.014 413.436 241.056 412.75 238.562C410.829 231.58 410.422 224.172 410.156 216.969C409.813 207.676 410.035 198.344 410.562 189.062C410.943 182.37 411.385 175.654 412.469 169.031C412.801 167.004 413.343 165.022 413.844 163.031C414.526 160.318 415.192 157.588 415.875 154.875C417.622 147.93 419.315 140.96 421.125 134.031C421.642 132.052 422.497 130.219 423.5 128.469C423.122 129.129 422.624 129.711 422.312 130.406C421.195 132.899 420.64 135.552 419.969 138.188C419.255 140.988 418.526 143.793 417.812 146.594C416.624 151.256 415.438 155.931 414.25 160.594C413.586 163.202 412.812 165.785 412.344 168.438C411.325 174.21 410.882 180.099 410.469 185.938C409.923 193.645 409.644 201.398 409.656 209.125C409.666 214.915 409.85 220.701 410.375 226.469C410.748 230.568 411.264 234.706 412.344 238.688C413.178 241.763 414.931 247.267 419 247C421.97 246.805 424.709 243.935 426.531 241.844C431.276 236.398 434.848 229.884 438.156 223.5C441.986 216.11 445.375 208.494 448.5 200.781C450.628 195.529 452.679 190.201 454.344 184.781C455.28 181.731 455.964 178.629 456.719 175.531C457.823 170.999 458.9 166.47 460 161.938C460.974 157.927 461.965 153.886 462.938 149.875C463.418 147.89 463.951 145.91 464.344 143.906C466.087 135.022 462.529 125.562 455.031 120.375C453.397 119.244 455.01 120.369 447.5 117.062C447.256 117.002 447.029 117.131 446.969 117.375C446.962 117.401 447.002 117.412 447 117.438C446.59 117.359 445.323 117.109 444.438 117.031C443.465 116.946 442.506 116.919 441.531 116.969ZM423.5 128.469C423.67 128.171 423.848 127.883 424.031 127.594C423.846 127.886 423.673 128.168 423.5 128.469ZM424.031 127.594C424.997 126.071 426.125 124.663 427.406 123.406C426.109 124.669 425 126.065 424.031 127.594ZM427.406 123.406C427.654 123.165 427.898 122.917 428.156 122.688C427.895 122.921 427.657 123.161 427.406 123.406ZM428.156 122.688C429.311 121.654 430.627 120.811 431.969 120.031C431.174 120.483 430.297 120.765 429.562 121.312C429.036 121.705 428.646 122.252 428.156 122.688ZM431.969 120.031C432.809 119.554 433.606 119.021 434.5 118.656C433.604 119.03 432.804 119.546 431.969 120.031ZM434.5 118.656C434.903 118.488 435.305 118.331 435.719 118.188C435.301 118.329 434.909 118.49 434.5 118.656ZM435.719 118.188C437.201 117.684 438.753 117.392 440.312 117.219C440.049 117.233 439.566 117.189 439.375 117.219C438.112 117.418 436.905 117.775 435.719 118.188Z"
          fill="#2a5c1e" stroke="none" />
      </g>
      <g opacity="1">
        <path class="flower"
          d="M510.949 402.907L510.949 402.907C501.773 410.868 487.652 409.619 479.409 400.118L454.981 371.269C446.737 361.768 414.934 310.775 424.11 302.814L424.11 302.814C433.286 294.853 483.421 336.457 491.664 345.958L512.638 371.289C520.881 380.79 520.125 394.946 510.949 402.907Z"
          fill="#e7b200" fill-rule="evenodd" stroke="none" />
        <path
          d="M428.188 301.594C426.172 301.427 424.249 301.841 423.156 303.562C422.359 304.819 422.137 306.433 422.188 308.062C422.238 309.692 422.569 311.335 422.875 312.688C424.396 319.401 427.357 325.786 430.375 331.938C434.192 339.719 438.499 347.29 443.062 354.656C446.047 359.473 449.138 364.239 452.531 368.781C454.404 371.288 456.484 373.64 458.5 376.031C461.546 379.644 464.607 383.265 467.656 386.875C470.197 389.883 472.739 392.868 475.281 395.875C476.722 397.579 478.11 399.361 479.625 401C484.233 405.988 490.862 408.75 497.531 408.562C499.754 408.5 501.972 408.123 504.125 407.375C506.003 406.723 504.148 407.361 511.25 403.25C511.442 403.088 511.474 402.818 511.312 402.625C511.29 402.598 511.246 402.645 511.219 402.625C511.518 402.346 512.475 401.484 513.062 400.812C513.705 400.078 514.309 399.285 514.844 398.469C515.071 398.122 515.138 397.702 515.344 397.344C514.121 399.221 511.56 402.203 511.188 402.625C511.024 402.521 510.812 402.431 510.656 402.562C508.312 404.33 509.159 403.762 508.312 404.312C507.512 404.833 506.677 405.314 505.812 405.719C501.55 407.711 496.683 408.184 492.094 407.188C488.067 406.313 484.304 404.33 481.312 401.5C479.618 399.897 478.194 398.026 476.688 396.25C474.65 393.848 472.601 391.433 470.562 389.031C466.995 384.828 463.445 380.607 459.875 376.406C457.605 373.736 455.237 371.143 453.125 368.344C450.109 364.346 447.366 360.135 444.688 355.906C441.399 350.714 438.241 345.418 435.281 340.031C432.338 334.676 429.546 329.22 427.156 323.594C425.639 320.021 424.248 316.352 423.375 312.562C423.234 311.95 423.074 311.239 422.969 310.594C422.568 308.139 422.222 304.028 424.844 302.594C427.33 301.233 431.239 302.551 433.656 303.469C440.427 306.038 446.653 310.089 452.625 314.125C460.329 319.332 467.724 325.003 474.906 330.906C480.085 335.163 485.262 339.53 489.969 344.312C491.41 345.777 492.688 347.358 494 348.938C495.788 351.09 497.587 353.254 499.375 355.406C503.951 360.915 508.568 366.357 513.094 371.906C514.393 373.5 515.396 375.303 516.219 377.156C515.907 376.454 515.725 375.7 515.344 375.031C513.991 372.658 512.169 370.629 510.438 368.531C508.597 366.302 506.746 364.073 504.906 361.844C501.843 358.133 498.782 354.429 495.719 350.719C494.006 348.643 492.365 346.474 490.5 344.531C486.441 340.303 481.939 336.467 477.469 332.688C471.568 327.698 465.496 322.925 459.25 318.375C454.571 314.966 449.81 311.667 444.844 308.688C441.314 306.57 437.665 304.54 433.812 303.062C432.325 302.492 430.203 301.761 428.188 301.594ZM516.219 377.156C516.352 377.456 516.473 377.758 516.594 378.062C516.472 377.755 516.353 377.459 516.219 377.156ZM516.594 378.062C517.23 379.679 517.673 381.353 517.938 383.062C517.676 381.338 517.234 379.685 516.594 378.062ZM517.938 383.062C518.01 383.541 518.083 384.018 518.125 384.5C518.081 384.012 518.012 383.547 517.938 383.062ZM518.125 384.5C518.251 385.893 518.163 387.293 518.031 388.688C518.115 387.868 518.382 387.075 518.375 386.25C518.37 385.659 518.176 385.088 518.125 384.5ZM518.031 388.688C517.92 389.779 517.864 390.876 517.594 391.938C517.859 390.867 517.928 389.78 518.031 388.688ZM517.594 391.938C517.503 392.302 517.422 392.671 517.312 393.031C517.426 392.667 517.5 392.307 517.594 391.938ZM517.312 393.031C516.842 394.547 516.135 395.964 515.344 397.344C515.487 397.124 515.818 396.765 515.906 396.594C516.497 395.446 516.944 394.244 517.312 393.031Z"
          fill="#2a5c1e" stroke="none" />
      </g>
      <g opacity="1">
        <path class="flower"
          d="M291.896 388.492L291.896 388.492C283.707 379.519 284.601 365.371 293.892 356.892L322.118 331.747C331.409 323.268 381.587 290.193 389.776 299.166L389.776 299.166C397.965 308.139 357.633 359.304 348.342 367.783L323.547 389.387C314.256 397.866 300.085 397.466 291.896 388.492Z"
          fill="#e7b200" fill-rule="evenodd" stroke="none" />
        <path
          d="M384.5 297.375C382.872 297.466 381.219 297.847 379.875 298.188C372.873 299.96 366.262 303.294 359.906 306.656C352.549 310.549 345.399 314.847 338.438 319.406C333.697 322.511 328.987 325.712 324.531 329.219C322.024 331.192 319.698 333.384 317.312 335.5C313.823 338.595 310.33 341.683 306.844 344.781C303.759 347.523 300.678 350.288 297.594 353.031C296.068 354.388 294.496 355.702 293.031 357.125C286.537 363.434 284.074 373.278 287.281 381.812C287.981 383.673 287.274 381.785 291.562 388.781C291.729 388.97 291.999 389.01 292.188 388.844C292.205 388.828 292.173 388.799 292.188 388.781C292.474 389.074 293.376 389.992 294.062 390.562C294.813 391.186 295.608 391.767 296.438 392.281C296.825 392.522 297.286 392.598 297.688 392.812C295.802 391.676 292.626 389.118 292.188 388.75C292.308 388.582 292.393 388.349 292.25 388.188C290.424 385.888 290.977 386.739 290.406 385.906C289.866 385.119 289.395 384.292 288.969 383.438C286.87 379.226 286.244 374.363 287.125 369.75C287.803 366.197 289.357 362.809 291.594 359.969C293.279 357.829 295.415 356.117 297.438 354.312C299.671 352.319 301.892 350.338 304.125 348.344C308.442 344.49 312.749 340.638 317.062 336.781C319.68 334.441 322.25 331.998 325 329.812C328.921 326.697 333.059 323.847 337.219 321.062C342.326 317.644 347.533 314.376 352.844 311.281C358.123 308.205 363.498 305.28 369.062 302.75C372.596 301.144 376.234 299.655 380 298.688C380.609 298.531 381.327 298.34 381.969 298.219C384.413 297.756 388.531 297.321 390.031 299.906C391.454 302.357 390.2 306.279 389.344 308.719C386.945 315.552 383.041 321.897 379.156 327.969C374.145 335.802 368.689 343.328 362.969 350.656C358.844 355.94 354.632 361.237 349.969 366.062C348.467 367.617 346.814 368.985 345.188 370.406C343.382 371.984 341.556 373.578 339.75 375.156C334.605 379.653 329.516 384.191 324.344 388.656C324.847 388.216 325.401 387.845 325.906 387.406C328.234 385.384 330.579 383.366 332.906 381.344C336.527 378.199 340.129 375.051 343.75 371.906C345.761 370.159 347.842 368.488 349.719 366.594C353.844 362.43 357.584 357.845 361.25 353.281C366.089 347.257 370.733 341.045 375.125 334.688C378.415 329.924 381.553 325.071 384.406 320.031C386.435 316.449 388.369 312.763 389.75 308.875C390.816 305.872 392.496 300.348 389 298.25C387.724 297.484 386.128 297.284 384.5 297.375ZM324.344 388.656C323.666 389.249 322.923 389.755 322.219 390.312C322.44 390.136 322.722 390.06 322.938 389.875C323.409 389.471 323.874 389.062 324.344 388.656ZM322.219 390.312C320.835 391.412 319.36 392.376 317.781 393.125C318.475 392.796 319.216 392.585 319.875 392.188C320.738 391.667 321.434 390.933 322.219 390.312ZM317.781 393.125C317.481 393.268 317.181 393.402 316.875 393.531C317.182 393.401 317.479 393.268 317.781 393.125ZM316.875 393.531C315.277 394.207 313.607 394.694 311.906 395C313.626 394.696 315.267 394.212 316.875 393.531ZM311.906 395C311.438 395.083 310.973 395.165 310.5 395.219C310.976 395.163 311.434 395.085 311.906 395ZM310.5 395.219C309.048 395.389 307.584 395.33 306.125 395.219C307.004 395.293 307.867 395.53 308.75 395.5C309.343 395.48 309.911 395.285 310.5 395.219ZM306.125 395.219C305.162 395.137 304.193 395.112 303.25 394.906C304.204 395.107 305.157 395.145 306.125 395.219ZM303.25 394.906C302.769 394.805 302.288 394.728 301.812 394.594C302.289 394.732 302.765 394.801 303.25 394.906ZM301.812 394.594C300.369 394.176 299.017 393.521 297.688 392.812C297.875 392.925 298.195 393.209 298.344 393.281C299.468 393.824 300.632 394.26 301.812 394.594Z"
          fill="#2a5c1e" stroke="none" />
      </g>
      <g opacity="1">
        <path class="flower"
          d="M419.606 437.395L419.606 437.395C407.517 438.598 396.708 429.426 395.463 416.909L392.171 379.25C390.926 366.734 394.397 306.736 406.485 305.534L406.485 305.534C418.573 304.331 435.491 367.245 436.737 379.762L439.239 412.553C440.484 425.07 431.694 436.192 419.606 437.395Z"
          fill="#e7b200" fill-rule="evenodd" stroke="none" />
        <path
          d="M406.688 305.281C406.229 305.297 405.753 305.4 405.281 305.594C402.528 306.725 400.842 310.313 399.781 312.875C397.018 319.548 395.728 326.864 394.625 333.969C393.349 342.194 392.537 350.506 392.031 358.812C391.687 364.469 391.445 370.145 391.594 375.812C391.677 379.002 392.042 382.166 392.312 385.344C392.709 389.991 393.099 394.634 393.5 399.281C393.855 403.393 394.206 407.513 394.562 411.625C394.739 413.659 394.859 415.725 395.125 417.75C396.302 426.727 402.709 434.565 411.469 437.094C413.378 437.645 411.484 437.101 419.656 437.844C419.907 437.823 420.083 437.594 420.062 437.344C420.518 437.282 421.719 437.11 422.562 436.906C423.511 436.677 424.436 436.358 425.344 436C425.716 435.853 426.013 435.573 426.375 435.406C424.292 436.225 420.592 437.172 420 437.312C419.945 437.102 419.786 436.919 419.562 436.938C416.627 437.027 417.634 437.071 416.625 437.031C415.671 436.994 414.721 436.888 413.781 436.719C409.151 435.885 404.891 433.463 401.719 430C399.276 427.333 397.503 424.084 396.562 420.594C395.854 417.964 395.738 415.232 395.5 412.531C395.237 409.549 394.983 406.576 394.719 403.594C394.209 397.83 393.702 392.045 393.188 386.281C392.875 382.784 392.452 379.293 392.344 375.781C392.189 370.775 392.371 365.749 392.625 360.75C392.937 354.612 393.432 348.482 394.125 342.375C394.814 336.303 395.671 330.255 396.969 324.281C397.792 320.489 398.775 316.661 400.25 313.062C400.489 312.48 400.807 311.806 401.094 311.219C402.184 308.982 404.25 305.439 407.219 305.781C410.034 306.106 412.431 309.449 413.875 311.594C417.92 317.601 420.704 324.507 423.25 331.25C426.535 339.949 429.294 348.847 431.75 357.812C433.521 364.278 435.231 370.815 436.312 377.438C436.644 379.465 436.778 381.516 436.938 383.562C437.155 386.352 437.377 389.117 437.594 391.906C438.149 399.046 438.759 406.2 439.25 413.344C439.39 415.376 439.171 417.374 438.781 419.344C438.926 418.608 439.208 417.903 439.281 417.156C439.547 414.437 439.234 411.744 439.031 409.031C438.816 406.149 438.591 403.257 438.375 400.375C438.016 395.577 437.671 390.798 437.312 386C437.112 383.316 436.995 380.6 436.594 377.938C435.721 372.141 434.28 366.417 432.812 360.75C430.875 353.27 428.691 345.852 426.219 338.531C424.366 333.046 422.335 327.581 420 322.281C418.34 318.514 416.542 314.774 414.25 311.344C412.701 309.025 409.894 305.169 406.688 305.281ZM438.781 419.344C438.711 419.699 438.649 420.055 438.562 420.406C438.65 420.052 438.71 419.703 438.781 419.344ZM438.562 420.406C438.133 422.147 437.498 423.847 436.688 425.438C437.513 423.832 438.131 422.159 438.562 420.406ZM436.688 425.438C436.532 425.74 436.388 426.048 436.219 426.344C436.388 426.045 436.532 425.743 436.688 425.438ZM436.219 426.344C435.418 427.757 434.397 429.006 433.312 430.219C433.969 429.497 434.755 428.897 435.312 428.094C435.688 427.553 435.892 426.914 436.219 426.344ZM433.312 430.219C432.725 430.864 432.189 431.553 431.531 432.125C432.191 431.544 432.729 430.871 433.312 430.219ZM431.531 432.125C431.188 432.427 430.863 432.75 430.5 433.031C430.867 432.75 431.182 432.428 431.531 432.125ZM430.5 433.031C429.235 433.999 427.824 434.737 426.375 435.406C426.635 435.304 427.133 435.187 427.312 435.094C428.45 434.501 429.504 433.803 430.5 433.031Z"
          fill="#2a5c1e" stroke="none" />
      </g>
    </g>


    <g id="Layer-1" vectornator:layerName="Layer 1">
      <path
        d="M409.339 247.818L409.339 247.818C423.871 247.818 435.652 259.599 435.652 274.131L435.652 274.131C435.652 288.663 423.871 300.443 409.339 300.443L409.339 300.443C394.808 300.443 383.027 288.663 383.027 274.131L383.027 274.131C383.027 259.599 394.808 247.818 409.339 247.818Z"
        fill="#edc655" fill-rule="evenodd" opacity="1" stroke="#000000" stroke-linecap="round"
        stroke-linejoin="round" stroke-width="1" />
      </path>
    </g>
  </g>
</svg>
