<svg width="40" height="40" viewBox="0 0 40 40" fill="none" xmlns="http://www.w3.org/2000/svg">
<path fill-rule="evenodd" clip-rule="evenodd" d="M38.8022 26.4319C38.2209 27.6905 36.534 28.2868 35.0343 27.7636L30.5496 26.1447C29.0499 25.6216 22.4228 22.1798 23.0041 20.9212C23.5854 19.6626 31.7564 21.237 33.256 21.76L37.1394 23.2058C38.639 23.7288 39.3835 25.1732 38.8022 26.4319Z" fill="#E7B200"/>
<path d="M24.921 20.4204C24.6554 20.4191 24.3896 20.427 24.1261 20.4518C23.7191 20.4902 22.9856 20.5881 22.9378 21.0415C22.9031 21.3724 23.2149 21.7286 23.4437 21.966C24.0395 22.5841 24.7916 23.0877 25.5352 23.5638C26.3962 24.1148 27.2969 24.6234 28.213 25.1023C28.8368 25.4285 29.4695 25.7454 30.1239 26.0234C30.492 26.1799 30.874 26.3083 31.2519 26.4456C31.8048 26.6463 32.3568 26.8488 32.91 27.0491C33.3993 27.2264 33.8898 27.4023 34.3793 27.5794C34.6214 27.6671 34.8636 27.7628 35.1098 27.8411C36.2023 28.1881 37.4768 27.96 38.2854 27.2235C38.4616 27.063 38.2852 27.2231 38.8555 26.4525C38.8679 26.4267 38.853 26.3971 38.8234 26.3862C38.8219 26.3857 38.8207 26.3866 38.8194 26.3862C38.838 26.3411 38.8922 26.2098 38.9197 26.1141C38.95 26.0084 38.9747 25.9016 38.9879 25.7932C38.9936 25.7466 38.9774 25.7003 38.98 25.6536C38.9502 25.9022 38.8335 26.3276 38.8153 26.3898C38.7882 26.3844 38.7582 26.3876 38.7471 26.4106C38.5829 26.7058 38.6469 26.6094 38.5825 26.7073C38.5215 26.7997 38.4529 26.8881 38.3777 26.9723C38.0076 27.3876 37.4792 27.685 36.8964 27.8201C36.4474 27.9243 35.9729 27.9318 35.5194 27.8446C35.1778 27.7789 34.8615 27.65 34.5398 27.5341C34.1845 27.4061 33.8272 27.2782 33.4719 27.1503C32.7851 26.9031 32.0995 26.6539 31.4125 26.4072C30.9956 26.2575 30.5704 26.1172 30.1639 25.9467C29.5847 25.7035 29.0242 25.4275 28.4699 25.1443C27.7893 24.7964 27.121 24.4327 26.4666 24.0488C25.8161 23.6671 25.175 23.268 24.5718 22.8312C24.1888 22.5538 23.8141 22.2594 23.4919 21.9276C23.4398 21.874 23.3811 21.8083 23.3313 21.7496C23.1413 21.5263 22.8589 21.1363 23.0744 20.8599C23.2786 20.5981 23.804 20.5328 24.1342 20.5007C25.0588 20.4105 26.009 20.4952 26.9283 20.5913C28.1143 20.7155 29.294 20.9018 30.4611 21.1216C31.3027 21.2802 32.1476 21.4449 32.9661 21.6798C33.2168 21.7517 33.4542 21.8481 33.6967 21.9381C34.0274 22.0606 34.3578 22.1818 34.6883 22.3044C35.5345 22.6181 36.3866 22.9261 37.2295 23.2464C37.4672 23.3366 37.6841 23.4601 37.8839 23.5987C37.8098 23.5471 37.7467 23.4834 37.6672 23.4382C37.3733 23.2715 37.0448 23.164 36.7237 23.044C36.3827 22.9165 36.0411 22.7878 35.7 22.6603C35.1322 22.4479 34.5657 22.2375 33.9978 22.0253C33.6803 21.9066 33.3655 21.7776 33.0385 21.6798C32.3264 21.4669 31.5912 21.3143 30.8586 21.167C29.8915 20.9725 28.9127 20.8049 27.932 20.6716C27.1971 20.5717 26.4583 20.4909 25.716 20.4483C25.4521 20.4331 25.1867 20.4217 24.921 20.4204ZM37.8839 23.5987C37.9262 23.6281 37.968 23.6581 38.0084 23.6894C37.9675 23.6578 37.9268 23.6284 37.8839 23.5987ZM38.0084 23.6894C38.1683 23.8134 38.3083 23.9511 38.434 24.1011C38.3083 23.9504 38.1682 23.8133 38.0084 23.6894ZM38.434 24.1011C38.4696 24.1438 38.5058 24.1856 38.5383 24.2302C38.5053 24.1852 38.4701 24.1442 38.434 24.1011ZM38.5383 24.2302C38.6445 24.375 38.7246 24.5336 38.7952 24.6942C38.753 24.5955 38.7313 24.4911 38.6747 24.3976C38.638 24.3368 38.5806 24.2881 38.5383 24.2302ZM38.7952 24.6942C38.8351 24.787 38.8809 24.8771 38.9076 24.9733C38.8799 24.8768 38.836 24.7867 38.7952 24.6942ZM38.9076 24.9733C38.9233 25.0277 38.9405 25.0818 38.9518 25.1373C38.9409 25.0813 38.9231 25.0285 38.9076 24.9733ZM38.9518 25.1373C38.985 25.3072 38.989 25.481 38.98 25.6536C38.9834 25.624 39 25.5707 39 25.5489C39 25.4084 38.9794 25.2731 38.9518 25.1373Z" fill="#2A5C1E"/>
<path fill-rule="evenodd" clip-rule="evenodd" d="M39.9432 16.2886C40.1919 17.7878 39.1498 19.2143 37.6156 19.4748L32.996 20.2019C31.4618 20.4625 24.0296 20.5327 23.7809 19.0336C23.5322 17.5346 31.1552 14.8942 32.6894 14.6336L36.7149 14.046C38.2491 13.7855 39.6944 14.7896 39.9432 16.2886Z" fill="#E7B200"/>
<path d="M37.2854 14.0011C36.9476 13.9908 36.6135 14.0548 36.2805 14.1028C35.9266 14.1539 35.5755 14.2042 35.2215 14.2554C34.6324 14.3405 34.0405 14.4244 33.4515 14.5095C33.122 14.5571 32.7912 14.5935 32.4659 14.6659C31.758 14.8236 31.0621 15.053 30.3751 15.2837C29.468 15.5885 28.5718 15.9264 27.689 16.2965C27.0276 16.5739 26.3718 16.8677 25.7373 17.2037C25.2861 17.4426 24.8391 17.6982 24.4349 18.0132C24.1615 18.226 23.7064 18.6108 23.7469 19.0104C23.7527 19.0674 23.7692 19.1251 23.7971 19.1824C23.9595 19.5166 24.419 19.6971 24.744 19.8081C25.5903 20.097 26.5017 20.1992 27.3875 20.2773C28.4131 20.3677 29.4424 20.3973 30.4717 20.3907C31.1725 20.3862 31.876 20.3669 32.5741 20.3007C32.967 20.2635 33.3592 20.1931 33.749 20.1325C34.3193 20.0441 34.8872 19.9557 35.4572 19.8668C35.9618 19.7879 36.4679 19.7111 36.9722 19.632C37.2219 19.593 37.4745 19.5611 37.7221 19.5109C38.8201 19.2885 39.7359 18.4202 39.9753 17.3054C40.0014 17.1839 40.002 17.1843 39.9984 17.0865C39.995 16.9885 39.9866 16.7942 39.9984 16.2809C39.9939 16.2498 39.9674 16.2293 39.9366 16.2339C39.9345 16.2343 39.9347 16.2373 39.9328 16.2379C39.9222 16.186 39.8882 16.0309 39.8555 15.9251C39.8193 15.8085 39.7758 15.6952 39.724 15.5849C39.7032 15.5405 39.666 15.5067 39.6429 15.4636C39.7616 15.7188 39.9078 16.1726 39.9289 16.2418C39.9049 16.2512 39.8824 16.2697 39.8864 16.2965C39.9219 16.6623 39.9177 16.5379 39.9211 16.6641C39.9245 16.7835 39.9226 16.9013 39.9095 17.02C39.8451 17.6051 39.5802 18.159 39.1791 18.5842C38.8703 18.9115 38.4851 19.1569 38.0622 19.3037C37.7436 19.4142 37.4079 19.4546 37.0766 19.5069C36.7108 19.5648 36.3448 19.621 35.979 19.6791C35.272 19.791 34.5642 19.9027 33.8572 20.0153C33.4283 20.0836 32.9988 20.1638 32.5665 20.2069C31.9499 20.2682 31.3302 20.2904 30.7113 20.3007C29.9512 20.3133 29.1904 20.3047 28.431 20.2694C27.6761 20.2344 26.918 20.1741 26.1701 20.0622C25.6952 19.9913 25.2196 19.9033 24.7633 19.7494C24.6895 19.7245 24.6024 19.6902 24.5276 19.6594C24.2425 19.5422 23.7872 19.3135 23.8049 18.9399C23.8216 18.5858 24.213 18.2584 24.4658 18.0601C25.1734 17.5046 26.0045 17.1012 26.8156 16.7267C27.8618 16.2436 28.9374 15.8221 30.0233 15.4401C30.8064 15.1648 31.5959 14.8957 32.4041 14.7051C32.6515 14.6466 32.9026 14.617 33.1539 14.58C33.4962 14.5294 33.8396 14.4778 34.1819 14.4274C35.0583 14.298 35.9325 14.1576 36.81 14.0364C37.0572 14.0022 37.308 14.013 37.552 14.0441C37.4624 14.0328 37.3758 14.004 37.2854 14.0011ZM37.552 14.0441C37.6014 14.0504 37.65 14.0588 37.6989 14.0677C37.6495 14.0587 37.6019 14.0505 37.552 14.0441ZM37.6989 14.0677C37.9148 14.1068 38.1241 14.1684 38.325 14.2554C38.123 14.1673 37.9153 14.1068 37.6989 14.0677ZM38.325 14.2554C38.3642 14.2724 38.4025 14.2912 38.441 14.31C38.402 14.2912 38.3647 14.2725 38.325 14.2554ZM38.441 14.31C38.6122 14.3936 38.7689 14.5022 38.9201 14.619C38.8328 14.5504 38.7601 14.4653 38.6651 14.4078C38.595 14.3654 38.5142 14.3461 38.441 14.31ZM38.9201 14.619C39.0177 14.6956 39.1197 14.7646 39.2062 14.8536C39.1189 14.7649 39.0181 14.6946 38.9201 14.619ZM39.2062 14.8536C39.2414 14.8894 39.2772 14.9253 39.3106 14.9631C39.277 14.9246 39.2418 14.8903 39.2062 14.8536ZM39.3106 14.9631C39.4419 15.1143 39.5475 15.2864 39.6429 15.4636C39.6277 15.431 39.6098 15.3685 39.5965 15.3463C39.5131 15.2079 39.4153 15.082 39.3106 14.9631Z" fill="#2A5C1E"/>
<path fill-rule="evenodd" clip-rule="evenodd" d="M0.533085 20.8455C0.53546 19.4027 1.74841 18.2351 3.24224 18.2375L7.73146 18.2987C9.22542 18.301 16.2733 19.4283 16.2709 20.871C16.2687 22.3138 8.6323 23.5609 7.13847 23.5586L3.23381 23.4622C1.73986 23.4599 0.530709 22.2882 0.533085 20.8455Z" fill="#E7B200"/>
<path d="M3.14841 18.1861C2.07347 18.218 1.06895 18.8811 0.665383 19.886C0.577378 20.1051 0.665263 19.8868 0.47987 20.8436C0.479276 20.8734 0.501962 20.8987 0.531772 20.8992C0.53391 20.8993 0.533553 20.8957 0.535572 20.8955C0.537235 20.945 0.543529 21.0952 0.557781 21.1999C0.573458 21.3146 0.596854 21.4297 0.628327 21.5412C0.642104 21.5901 0.674646 21.6308 0.691392 21.6786C0.618232 21.4246 0.54816 20.9591 0.539253 20.8918C0.563362 20.8868 0.586997 20.8729 0.587472 20.8473C0.611938 20.4993 0.593054 20.6171 0.609681 20.4983C0.625595 20.3861 0.652794 20.2734 0.684029 20.1644C0.83783 19.6272 1.17216 19.1543 1.61919 18.8208C2.01159 18.5282 2.48344 18.3486 2.97026 18.3012C3.24604 18.2744 3.52502 18.2939 3.80162 18.2975C4.17562 18.3022 4.55199 18.3039 4.9261 18.3086C5.58085 18.3167 6.23477 18.3269 6.88953 18.3345C7.30568 18.3395 7.72469 18.3315 8.14025 18.3605C8.7336 18.4021 9.32292 18.4824 9.91057 18.5721C10.6322 18.6823 11.3499 18.8145 12.0632 18.9692C12.7723 19.1231 13.4809 19.3013 14.1713 19.526C14.6095 19.6686 15.0479 19.8283 15.4554 20.0456C15.5213 20.0807 15.5973 20.1235 15.6632 20.1644C15.9145 20.3198 16.3107 20.6081 16.2348 20.9549C16.1629 21.2836 15.7373 21.5298 15.4665 21.6749C14.7085 22.0811 13.859 22.323 13.0318 22.5433C11.9647 22.8276 10.8806 23.0469 9.7918 23.2299C9.00676 23.362 8.21567 23.4893 7.42017 23.538C7.164 23.5537 6.90841 23.5403 6.652 23.5343C6.3672 23.5277 6.08299 23.5223 5.79831 23.5158C4.9875 23.497 4.17443 23.4837 3.36362 23.4601C3.44307 23.4619 3.52169 23.4765 3.60115 23.4786C3.96718 23.4882 4.33001 23.4987 4.69605 23.5083C5.26541 23.5232 5.83762 23.538 6.40698 23.5529C6.72326 23.5612 7.04084 23.5795 7.35711 23.564C8.05236 23.5301 8.74465 23.4285 9.43182 23.3227C10.3388 23.1831 11.2428 23.0115 12.1374 22.8069C12.8077 22.6534 13.4763 22.4812 14.1304 22.2688C14.5954 22.1176 15.0598 21.9493 15.4925 21.7194C15.7851 21.5641 16.2728 21.2758 16.2979 20.8955C16.3015 20.8412 16.2966 20.7865 16.2794 20.7285C16.1787 20.3897 15.7715 20.1459 15.4814 19.9899C14.7614 19.6027 13.9593 19.3716 13.1729 19.1622C12.1782 18.8975 11.1638 18.6931 10.1481 18.5276C9.48384 18.4193 8.81543 18.3217 8.14393 18.2715C7.77326 18.2438 7.40188 18.2477 7.0305 18.2418C6.46934 18.233 5.90662 18.2241 5.34557 18.2158C4.87788 18.2089 4.41018 18.204 3.9426 18.1972C3.67763 18.1934 3.41326 18.1782 3.14841 18.1861ZM3.36362 23.4601C3.25328 23.4576 3.14319 23.446 3.03333 23.4378C3.06991 23.4405 3.10411 23.4552 3.14093 23.4564C3.21504 23.4588 3.28951 23.458 3.36362 23.4601ZM3.03333 23.4378C2.83475 23.4233 2.63927 23.3903 2.45055 23.3339C2.5306 23.3577 2.60613 23.3954 2.68808 23.4118C2.80186 23.4347 2.91848 23.4292 3.03333 23.4378ZM2.45055 23.3339C2.40031 23.3189 2.3515 23.2998 2.30209 23.282C2.35197 23.3 2.39972 23.3187 2.45055 23.3339ZM2.30209 23.282C2.10542 23.2107 1.91681 23.1164 1.74175 23.0036C1.91848 23.1184 2.10399 23.2103 2.30209 23.282ZM1.74175 23.0036C1.70862 22.9821 1.6737 22.9634 1.64152 22.9405C1.67406 22.9635 1.70814 22.982 1.74175 23.0036ZM1.64152 22.9405C1.48771 22.8316 1.35387 22.7005 1.22584 22.5619C1.30054 22.6441 1.36028 22.7384 1.44484 22.8106C1.5047 22.8618 1.5775 22.8948 1.64152 22.9405ZM1.22584 22.5619C1.15291 22.4816 1.07679 22.4055 1.01431 22.317C1.07774 22.4056 1.1522 22.4822 1.22584 22.5619ZM1.01431 22.317C0.98106 22.2707 0.947926 22.2245 0.91776 22.1759C0.947926 22.2252 0.980942 22.2697 1.01431 22.317ZM0.91776 22.1759C0.822272 22.0198 0.751844 21.8518 0.691392 21.6786C0.699587 21.7069 0.705525 21.7622 0.71372 21.7825C0.769184 21.9216 0.840206 22.0509 0.91776 22.1759Z" fill="#2A5C1E"/>
<path fill-rule="evenodd" clip-rule="evenodd" d="M2.42358 11.1655C3.0161 9.85005 4.60067 9.28104 5.9628 9.89458L10.0338 11.7875C11.396 12.401 17.3655 16.3137 16.7728 17.6292C16.1803 18.9446 8.70236 16.9576 7.34024 16.344L3.81694 14.6584C2.45482 14.0448 1.83094 12.4809 2.42358 11.1655Z" fill="#E7B200"/>
<path d="M5.12277 9.61644C4.33286 9.53306 3.52133 9.7801 2.93677 10.3439C2.76693 10.5078 2.93712 10.3448 2.37643 11.1419C2.36372 11.1688 2.37536 11.2034 2.40232 11.2161C2.40363 11.2167 2.40481 11.2156 2.40612 11.2161C2.38569 11.2661 2.32762 11.399 2.2984 11.4982C2.26574 11.6093 2.24116 11.725 2.22417 11.8396C2.21705 11.8878 2.22845 11.9358 2.22417 11.9844C2.26254 11.7229 2.38866 11.2832 2.4098 11.2124C2.43451 11.2191 2.46159 11.2142 2.47287 11.1901C2.6376 10.8827 2.57228 10.9835 2.63617 10.882C2.6965 10.786 2.76349 10.6941 2.83653 10.6074C3.19687 10.1802 3.69877 9.88615 4.24319 9.76489C4.72098 9.65848 5.22348 9.68686 5.6869 9.8428C5.94961 9.93128 6.20068 10.0605 6.45152 10.1769C6.79095 10.3344 7.12896 10.4909 7.46839 10.6483C8.06245 10.9236 8.65569 11.2009 9.24987 11.4758C9.62766 11.6507 10.011 11.8137 10.3781 12.0103C10.9026 12.291 11.4115 12.6084 11.911 12.9307C12.5244 13.3266 13.1235 13.7409 13.7111 14.1741C14.2951 14.6048 14.8693 15.0523 15.4072 15.5399C15.7487 15.8495 16.0817 16.1769 16.3648 16.542C16.4105 16.601 16.4623 16.6707 16.5057 16.735C16.6714 16.9797 16.9174 17.4035 16.7062 17.6888C16.506 17.9594 16.0178 18.0124 15.7115 18.0339C14.8536 18.0943 13.977 17.9673 13.1321 17.8298C12.042 17.6525 10.9641 17.4107 9.89572 17.1322C9.12528 16.9313 8.35153 16.7192 7.6058 16.4381C7.37741 16.352 7.15781 16.246 6.93774 16.1412C6.63774 15.9982 6.33952 15.8535 6.03952 15.7106C5.2717 15.3447 4.49925 14.9849 3.73475 14.6121C3.52086 14.5078 3.32952 14.3685 3.15209 14.2149C3.2167 14.2709 3.26801 14.3396 3.3376 14.3894C3.60174 14.5779 3.90007 14.706 4.19129 14.8459C4.50067 14.9945 4.8097 15.1426 5.11909 15.2913C5.63429 15.5387 6.15163 15.7861 6.66672 16.0336C6.95485 16.1719 7.23739 16.3216 7.53525 16.4381C8.18359 16.6917 8.85806 16.8806 9.52826 17.0653C10.4131 17.3091 11.3078 17.5243 12.208 17.7037C12.8823 17.838 13.5617 17.9528 14.2455 18.0266C14.7316 18.079 15.2263 18.1185 15.7152 18.086C16.0929 18.0608 16.772 17.9832 16.8361 17.5032C16.8828 17.1528 16.6138 16.7659 16.413 16.5048C15.9144 15.857 15.2782 15.3142 14.6463 14.8013C13.8472 14.1527 13.0076 13.5532 12.1486 12.9864C11.5867 12.6159 11.0148 12.253 10.4228 11.9324C10.0958 11.7554 9.75343 11.6073 9.41697 11.4499C8.90854 11.2122 8.4001 10.9745 7.89155 10.7373C7.46767 10.5396 7.04249 10.341 6.6185 10.1435C6.37824 10.0315 6.14344 9.91074 5.89854 9.80943C5.65008 9.70682 5.38619 9.64423 5.12277 9.61644ZM3.15209 14.2149C3.11278 14.181 3.0743 14.1471 3.03701 14.111C3.07465 14.1475 3.11242 14.1806 3.15209 14.2149ZM3.03701 14.111C2.88784 13.9663 2.75648 13.8057 2.64365 13.6323C2.75684 13.8073 2.88724 13.9659 3.03701 14.111ZM2.64365 13.6323C2.62216 13.5991 2.60042 13.566 2.58047 13.532C2.60078 13.5665 2.6218 13.5988 2.64365 13.6323ZM2.58047 13.532C2.48498 13.3704 2.41432 13.1979 2.3541 13.0198C2.38819 13.1235 2.40387 13.2327 2.45054 13.3317C2.48475 13.4036 2.54021 13.4634 2.58047 13.532ZM2.3541 13.0198C2.31883 12.9128 2.27892 12.8075 2.25766 12.697C2.27975 12.8084 2.31788 12.9128 2.3541 13.0198ZM2.25766 12.697C2.24757 12.6463 2.23498 12.5961 2.22797 12.5447C2.23474 12.5967 2.24769 12.6454 2.25766 12.697ZM2.22797 12.5447C2.20339 12.3584 2.20755 12.172 2.22417 11.9844C2.21954 12.0159 2.20291 12.0725 2.20196 12.0957C2.19555 12.2474 2.20766 12.397 2.22797 12.5447Z" fill="#2A5C1E"/>
<path fill-rule="evenodd" clip-rule="evenodd" d="M10.8452 1.23212C12.367 0.703607 14.109 1.38951 14.7361 2.76426L16.5642 6.91508C17.1914 8.28971 18.9745 15.1857 17.4529 15.7142C15.9312 16.2427 11.3975 9.67905 10.7703 8.3043L9.22565 4.6781C8.59846 3.30347 9.32353 1.76063 10.8452 1.23212Z" fill="#E7B200"/>
<path d="M11.9092 1.00003C11.6413 0.999681 11.9088 0.998858 10.8223 1.18024C10.7906 1.19071 10.7766 1.22236 10.7886 1.25C10.7893 1.25176 10.7918 1.25212 10.7928 1.25364C10.7932 1.25353 10.7967 1.25388 10.797 1.25364C10.8119 1.27564 10.8402 1.29246 10.8687 1.28305C11.2456 1.17766 11.1114 1.20483 11.2436 1.17648C11.3686 1.14978 11.4948 1.12907 11.6227 1.11766C12.2538 1.06167 12.8987 1.19671 13.4386 1.48526C13.8544 1.70746 14.2023 2.01813 14.454 2.38219C14.6437 2.65651 14.7608 2.96317 14.8921 3.26077C15.0372 3.58943 15.1809 3.91739 15.3261 4.24593C15.6067 4.88102 15.8876 5.51516 16.1687 6.15013C16.3393 6.53537 16.5253 6.91826 16.6701 7.31161C16.8764 7.87259 17.0394 8.44757 17.1926 9.02102C17.3805 9.72504 17.5479 10.4327 17.6855 11.1457C17.8222 11.8545 17.9346 12.5712 17.9888 13.2888C18.0232 13.7444 18.0376 14.2052 17.9804 14.6599C17.9711 14.7334 17.9577 14.8195 17.9424 14.8951C17.8845 15.1834 17.7459 15.6535 17.3484 15.7112C16.9716 15.7659 16.5368 15.4658 16.2699 15.2701C15.5221 14.7223 14.9043 14.0309 14.3233 13.3512C13.574 12.4744 12.8856 11.5576 12.2336 10.6237C11.7636 9.9503 11.2974 9.26781 10.9108 8.55414C10.7924 8.3357 10.7 8.10774 10.6032 7.88142C10.4712 7.57311 10.3391 7.26715 10.2071 6.95872C9.86941 6.16954 9.52562 5.3833 9.19598 4.59153C9.10336 4.36897 9.0551 4.13653 9.03164 3.90409C9.04027 3.98867 9.03083 4.07407 9.04862 4.15771C9.11536 4.47378 9.2584 4.76927 9.38567 5.06934C9.52076 5.38824 9.65491 5.70619 9.79013 6.02509C10.0151 6.55596 10.2391 7.08964 10.4642 7.62051C10.59 7.91741 10.7049 8.21831 10.856 8.50638C11.1848 9.13335 11.584 9.73292 11.9851 10.326C12.5146 11.1087 13.0774 11.876 13.6704 12.6234C14.1146 13.1834 14.5777 13.7359 15.0775 14.2592C15.4328 14.6313 15.8073 14.9971 16.232 15.3105C16.478 15.4921 16.8849 15.7714 17.2557 15.7737C17.3793 15.7745 17.4977 15.7415 17.6054 15.6671C17.92 15.4499 18.0057 14.9915 18.0479 14.6673C18.0752 14.4562 18.0905 14.2409 18.0941 14.0276C18.1053 13.388 18.0252 12.7454 17.9341 12.1161C17.7933 11.1447 17.5878 10.1787 17.3442 9.22311C17.1783 8.57249 16.9972 7.92188 16.7671 7.28597C16.6375 6.92802 16.4737 6.58136 16.3204 6.23094C16.0961 5.71831 15.8712 5.20309 15.6463 4.69069C15.4473 4.23734 15.2472 3.78399 15.0481 3.33065C14.9496 3.10632 14.8587 2.87824 14.7489 2.65792C14.2622 1.68123 13.1385 1.00156 11.9092 1.00003ZM9.03164 3.90409C9.02678 3.85504 9.02517 3.80623 9.02328 3.75706C9.02517 3.80658 9.02678 3.85457 9.03164 3.90409ZM9.02328 3.75706C9.01559 3.55603 9.03164 3.35464 9.07384 3.15785C9.03056 3.35664 9.01532 3.55485 9.02328 3.75706ZM9.07384 3.15785C9.08476 3.1075 9.09325 3.05692 9.10754 3.00716C9.09338 3.05727 9.08476 3.10715 9.07384 3.15785ZM9.10754 3.00716C9.15432 2.84166 9.23211 2.68415 9.31395 2.52923C9.26528 2.61934 9.19477 2.69944 9.1581 2.7939C9.13127 2.86283 9.12776 2.93658 9.10754 3.00716ZM9.31395 2.52923C9.3757 2.41525 9.43232 2.29973 9.512 2.19469C9.43246 2.30114 9.37462 2.41454 9.31395 2.52923ZM9.512 2.19469C9.53977 2.15763 9.5662 2.12035 9.59626 2.08447C9.56566 2.12058 9.54045 2.1574 9.512 2.19469ZM9.59626 2.08447C9.72232 1.93567 9.87413 1.80557 10.0344 1.68382C10.0079 1.70182 9.95138 1.72758 9.93331 1.74264C9.80685 1.84744 9.69724 1.96378 9.59626 2.08447ZM10.0344 1.68382C10.2701 1.5242 10.7197 1.28952 10.7928 1.25364C10.7402 1.27388 10.5848 1.33093 10.481 1.38233C10.3666 1.43903 10.2567 1.50361 10.1524 1.57348C10.1064 1.6043 10.0781 1.65065 10.0344 1.68382Z" fill="#2A5C1E"/>
<path fill-rule="evenodd" clip-rule="evenodd" d="M33.8448 4.53803C35.1053 5.4373 35.3146 7.14896 34.3123 8.36128L31.253 11.9709C30.2505 13.1832 24.5454 18.2089 23.285 17.3098C22.0244 16.4106 26.0464 9.4302 27.0487 8.21788L29.7473 5.10506C30.7498 3.89274 32.5842 3.63888 33.8448 4.53803Z" fill="#E7B200"/>
<path d="M32.0518 4.00406C31.9851 4.006 31.9219 4.03189 31.8556 4.03821C31.9905 4.02666 32.1252 4.00576 32.2604 4.0116C32.1904 4.00904 32.1217 4.00187 32.0518 4.00406ZM32.2604 4.0116C32.3113 4.01354 32.3609 4.01475 32.4116 4.01925C32.361 4.01451 32.3113 4.0139 32.2604 4.0116ZM32.4116 4.01925C32.6203 4.03857 32.8214 4.09034 33.0209 4.1522C32.9863 4.1392 32.9282 4.10578 32.9023 4.09897C32.74 4.05668 32.5765 4.03371 32.4116 4.01925ZM33.0209 4.1522C33.2924 4.25306 33.7265 4.47496 33.7977 4.51288C33.7837 4.53621 33.7826 4.56416 33.8059 4.5813C34.0939 4.81754 34.0035 4.72931 34.0961 4.81669C34.1838 4.89945 34.2629 4.98937 34.3374 5.08258C34.7042 5.5417 34.897 6.11067 34.8894 6.68134C34.8835 7.12089 34.7606 7.55473 34.5377 7.94215C34.3697 8.23405 34.1354 8.48439 33.9162 8.74347C33.6742 9.02954 33.4304 9.31561 33.1885 9.60167C32.7208 10.1547 32.2533 10.7079 31.7861 11.2613C31.5026 11.597 31.2316 11.9438 30.9276 12.2639C30.4938 12.7201 30.0257 13.1486 29.5538 13.5703C28.9742 14.088 28.3801 14.5907 27.767 15.074C27.1576 15.5546 26.5288 16.0201 25.8699 16.4411C25.4516 16.7086 25.0163 16.963 24.5534 17.159C24.4785 17.1907 24.3921 17.2257 24.3122 17.2539C24.008 17.3613 23.4893 17.5047 23.2368 17.2273C22.9974 16.9643 23.0681 16.4665 23.1223 16.1564C23.2746 15.2878 23.628 14.4477 23.9891 13.6386C24.455 12.5947 24.9903 11.5762 25.5591 10.5776C25.9693 9.85772 26.3898 9.13527 26.8798 8.45862C27.0376 8.24061 27.218 8.04046 27.395 7.83582C27.5914 7.60857 27.7873 7.38326 27.9838 7.15602C28.5439 6.50793 29.0997 5.85292 29.6641 5.20787C29.6085 5.27228 29.5442 5.32964 29.4884 5.39393C29.2348 5.68546 28.9813 5.9759 28.7278 6.26743C28.3335 6.72084 27.9405 7.17351 27.5463 7.62692C27.3273 7.87884 27.0945 8.12371 26.8961 8.39021C26.4602 8.97631 26.0863 9.60423 25.7186 10.2284C25.2334 11.0521 24.7811 11.8919 24.3612 12.7461C24.0466 13.3862 23.7464 14.0344 23.4944 14.6981C23.3153 15.1699 23.1539 15.6543 23.0652 16.1488C22.9966 16.5308 22.9059 17.2292 23.4046 17.4058C23.4955 17.438 23.5931 17.4482 23.6948 17.4476C23.9997 17.4455 24.334 17.32 24.5821 17.216C25.4432 16.8547 26.22 16.318 26.9616 15.7804C27.82 15.1581 28.6429 14.488 29.4351 13.7942C29.9747 13.3219 30.5035 12.8391 30.997 12.3247C31.2747 12.0351 31.5273 11.7247 31.7861 11.4208C32.1646 10.9761 32.5447 10.529 32.9228 10.084C33.2572 9.69026 33.5901 9.29677 33.9245 8.90291C34.0898 8.70811 34.2631 8.51574 34.4192 8.31438C35.111 7.42118 35.2038 6.19489 34.595 5.24202C34.4622 5.03434 34.5963 5.23959 33.8835 4.49392C33.8577 4.47496 33.8181 4.4814 33.7977 4.50534C33.7966 4.50644 33.7986 4.5079 33.7977 4.50911C33.7501 4.47764 33.6191 4.39087 33.5197 4.33825C33.4087 4.27955 33.2908 4.22633 33.1722 4.18258C33.1238 4.16459 33.0701 4.16739 33.0209 4.1522ZM29.6641 5.20787C29.7367 5.1239 29.8164 5.04527 29.8931 4.96483C29.8692 4.98998 29.8382 5.00724 29.8155 5.03324C29.7646 5.09097 29.7149 5.14991 29.6641 5.20787ZM29.8931 4.96483C30.0423 4.80733 30.2067 4.66478 30.3877 4.54326C30.3116 4.59442 30.2256 4.6338 30.1547 4.6914C30.0554 4.77221 29.9801 4.87368 29.8931 4.96483ZM30.3877 4.54326C30.4341 4.51227 30.4829 4.48456 30.5309 4.45601C30.4823 4.48469 30.4346 4.51191 30.3877 4.54326ZM30.5309 4.45601C30.7208 4.34323 30.9251 4.25367 31.136 4.18258C30.9225 4.25391 30.722 4.34226 30.5309 4.45601ZM31.136 4.18258C31.1843 4.16642 31.2301 4.14697 31.2791 4.13312C31.2299 4.14722 31.1844 4.16617 31.136 4.18258ZM31.2791 4.13312C31.4658 4.07989 31.661 4.05656 31.8556 4.03821C31.7412 4.04805 31.6247 4.03493 31.5121 4.05717C31.4309 4.07333 31.3585 4.11076 31.2791 4.13312Z" fill="#2A5C1E"/>
<path fill-rule="evenodd" clip-rule="evenodd" d="M24.3466 0.0678378C25.7101 0.400725 26.5535 1.89214 26.2304 3.39892L25.2086 7.91433C24.8857 9.42099 22.3066 16.2739 20.9432 15.9408C19.5797 15.608 20.0403 7.61733 20.3634 6.11055L21.2928 2.19308C21.6158 0.686302 22.9831 -0.265172 24.3466 0.0678378Z" fill="#E7B200"/>
<path d="M23.6701 0.0030775C23.6222 0.00565802 23.5774 0.0281454 23.5298 0.0337979C23.7877 0.0190521 24.2394 0.0581285 24.3034 0.0645184C24.3042 0.088849 24.3125 0.116006 24.3357 0.12215C24.6594 0.226477 24.5474 0.181747 24.6561 0.225739C24.7588 0.267396 24.8619 0.319006 24.9583 0.375532C25.4331 0.653859 25.8077 1.09992 26.0269 1.62745C26.1957 2.0337 26.2681 2.48197 26.2428 2.92533C26.2237 3.25932 26.1395 3.58447 26.0665 3.90838C25.9858 4.26609 25.9023 4.62208 25.8219 4.97979C25.6661 5.67112 25.5129 6.36184 25.3577 7.05342C25.2635 7.47294 25.1795 7.89577 25.0626 8.30902C24.8959 8.89824 24.6907 9.47628 24.4797 10.0487C24.2206 10.7514 23.9445 11.4495 23.6449 12.1338C23.3472 12.8141 23.027 13.4855 22.6662 14.1307C22.4373 14.5401 22.1928 14.9443 21.8998 15.3057C21.8525 15.364 21.7944 15.4328 21.7415 15.49C21.5406 15.7079 21.1823 16.0416 20.8708 15.8855C20.5754 15.7375 20.4353 15.2511 20.3563 14.9446C20.1351 14.0867 20.0882 13.1764 20.0576 12.2913C20.0181 11.1493 20.0437 10.0026 20.1044 8.86199C20.1482 8.03967 20.1991 7.21439 20.3239 6.40055C20.3622 6.15147 20.4246 5.90791 20.4822 5.66326C20.5608 5.32988 20.6375 4.99441 20.7161 4.66103C20.9172 3.80762 21.1122 2.95113 21.3206 2.09969C21.3801 1.8565 21.4786 1.63126 21.594 1.41622C21.5505 1.49732 21.4932 1.56884 21.4573 1.65424C21.3286 1.96058 21.2647 2.28659 21.1875 2.61051C21.1053 2.95457 21.0213 3.29926 20.9391 3.64345C20.8023 4.21632 20.6658 4.7908 20.529 5.36379C20.4525 5.68427 20.3634 6.00167 20.3095 6.32768C20.1922 7.03695 20.1412 7.7606 20.0937 8.47811C20.0308 9.42516 19.9987 10.3779 20 11.3274C20.0012 12.0389 20.0224 12.7498 20.0828 13.4586C20.1258 13.9623 20.1852 14.4708 20.3095 14.9601C20.4056 15.338 20.6074 16.0143 21.0759 15.9815C21.4179 15.9576 21.7332 15.6049 21.943 15.3479C22.4894 14.6787 22.9006 13.8783 23.2815 13.0938C23.7225 12.1857 24.1127 11.2498 24.4725 10.302C24.7175 9.65667 24.9537 9.00196 25.1454 8.33594C25.2532 7.96115 25.3319 7.57997 25.4189 7.19928C25.546 6.64238 25.67 6.08585 25.7966 5.52895C25.9088 5.03607 26.0229 4.5395 26.1349 4.04662C26.1902 3.8027 26.2516 3.5594 26.2968 3.31314C26.4975 2.22146 26.0878 1.059 25.2245 0.421613C25.0364 0.282633 25.2221 0.420875 24.3574 0.0145049C24.3293 0.00713195 24.3032 0.0229841 24.2963 0.0529673C24.2954 0.0561622 24.3001 0.0575143 24.2998 0.0607093C24.2526 0.0510016 24.1067 0.0202805 24.0048 0.0106957C23.8928 0.000250785 23.7824 -0.00306659 23.6701 0.0030775ZM21.594 1.41622C21.6136 1.3796 21.6341 1.34421 21.6552 1.3087C21.6339 1.34458 21.614 1.37923 21.594 1.41622ZM21.6552 1.3087C21.7664 1.12155 21.8963 0.948529 22.0438 0.794067C21.8944 0.949267 21.7667 1.12081 21.6552 1.3087ZM22.0438 0.794067C22.0723 0.764452 22.1004 0.733978 22.1301 0.705838C22.1001 0.73447 22.0727 0.763961 22.0438 0.794067ZM22.1301 0.705838C22.2631 0.578779 22.4146 0.475189 22.5692 0.379341C22.4776 0.434884 22.3766 0.469536 22.292 0.536752C22.2315 0.585045 22.1865 0.652262 22.1301 0.705838ZM22.5692 0.379341C22.6659 0.320726 22.7576 0.25523 22.8606 0.210379C22.7574 0.256336 22.6653 0.319743 22.5692 0.379341ZM22.8606 0.210379C22.907 0.189734 22.9533 0.170443 23.0009 0.152871C22.9528 0.170197 22.9077 0.18998 22.8606 0.210379ZM23.0009 0.152871C23.1716 0.0909382 23.3503 0.0550565 23.5298 0.0337979C23.4995 0.0355183 23.4439 0.0301115 23.4219 0.0337979C23.2765 0.0582514 23.1375 0.10212 23.0009 0.152871Z" fill="#2A5C1E"/>
<path fill-rule="evenodd" clip-rule="evenodd" d="M32.0239 35.2265C30.6601 36.0743 28.7036 35.7514 27.6541 34.5054L24.5512 30.7293C23.5015 29.4832 19.6034 22.9474 20.9673 22.0996C22.3311 21.2518 28.8852 26.8794 29.9347 28.1254L32.593 31.4353C33.6426 32.6813 33.3878 34.3787 32.0239 35.2265Z" fill="#E7B200"/>
<path d="M21.5489 22.0023C21.2695 21.9575 20.9969 21.984 20.8263 22.1781C20.7019 22.32 20.6539 22.5118 20.6438 22.7088C20.6336 22.906 20.6624 23.1081 20.6909 23.2749C20.8322 24.1028 21.1779 24.9087 21.5339 25.6872C21.9843 26.6719 22.5051 27.6372 23.0639 28.581C23.4294 29.1981 23.8103 29.8104 24.2357 30.3994C24.4705 30.7245 24.7358 31.0335 24.9918 31.3463C25.3785 31.8191 25.7673 32.293 26.1545 32.7654C26.4772 33.1591 26.8002 33.5499 27.1231 33.9435C27.3061 34.1665 27.4809 34.3983 27.6749 34.6144C28.2651 35.272 29.1605 35.6858 30.0927 35.7446C30.4035 35.7642 30.7168 35.7458 31.025 35.6819C31.2938 35.6262 31.0283 35.6805 32.0623 35.2716C32.0908 35.2544 32.0981 35.2222 32.0775 35.197C32.0748 35.1934 32.0681 35.1986 32.0646 35.1958C32.1092 35.1658 32.2518 35.0736 32.3408 34.9997C32.4382 34.9191 32.5308 34.8309 32.614 34.739C32.6493 34.6999 32.6631 34.6501 32.6956 34.6095C32.5052 34.8208 32.1166 35.1491 32.0602 35.1954C32.0385 35.1809 32.0098 35.1675 31.9867 35.1814C31.6411 35.3659 31.7652 35.3078 31.6413 35.3637C31.5242 35.4168 31.4027 35.4646 31.2778 35.5029C30.6623 35.691 29.9784 35.6886 29.3489 35.5126C28.7964 35.3579 28.2924 35.0729 27.905 34.6952C27.6856 34.4813 27.5067 34.2384 27.3154 34.0059C27.0565 33.6914 26.7961 33.3753 26.5371 33.0608C26.0839 32.5105 25.6332 31.9583 25.1796 31.4083C24.8911 31.0587 24.5882 30.7172 24.3231 30.354C23.9446 29.8352 23.6064 29.294 23.2775 28.7515C22.8735 28.0854 22.4889 27.4084 22.1329 26.7228C21.7788 26.0413 21.447 25.3494 21.1729 24.642C20.999 24.1927 20.8437 23.7334 20.7619 23.2659C20.7487 23.1903 20.7339 23.1027 20.7261 23.0236C20.696 22.7228 20.6911 22.2229 21.072 22.082C21.4331 21.9483 21.9644 22.1549 22.2918 22.2951C23.2092 22.6874 24.0349 23.2518 24.8253 23.8112C25.8449 24.533 26.8166 25.3069 27.7561 26.1062C28.4335 26.6827 29.1096 27.2723 29.7157 27.9063C29.9012 28.1005 30.0628 28.3067 30.2291 28.5132C30.4558 28.7944 30.6839 29.0773 30.9106 29.3586C31.4908 30.0786 32.0773 30.791 32.6501 31.5152C32.8145 31.7232 32.9354 31.9529 33.0306 32.1863C32.9945 32.0979 32.9771 32.0047 32.931 31.9194C32.7673 31.6168 32.5346 31.35 32.3152 31.0759C32.082 30.7847 31.8473 30.4934 31.6142 30.2022C31.2261 29.7174 30.8382 29.2335 30.4501 28.7489C30.2331 28.4777 30.0271 28.1962 29.7874 27.9392C29.2659 27.3799 28.6784 26.8625 28.0947 26.3524C27.3243 25.6787 26.5277 25.0292 25.7045 24.4044C25.0878 23.9364 24.4586 23.4805 23.7973 23.0608C23.3273 22.7624 22.8397 22.4731 22.3179 22.2479C22.1165 22.161 21.8282 22.047 21.5489 22.0023ZM33.0306 32.1863C33.046 32.2241 33.0597 32.262 33.0734 32.3001C33.0596 32.2616 33.0461 32.2245 33.0306 32.1863ZM33.0734 32.3001C33.145 32.5028 33.1892 32.71 33.2081 32.9193C33.1897 32.7083 33.1455 32.5036 33.0734 32.3001ZM33.2081 32.9193C33.2131 32.9779 33.2182 33.0363 33.219 33.0949C33.218 33.0356 33.2133 32.9787 33.2081 32.9193ZM33.219 33.0949C33.2219 33.2644 33.1948 33.4321 33.1617 33.5987C33.1821 33.5009 33.2277 33.4085 33.2354 33.309C33.241 33.2377 33.2199 33.1665 33.219 33.0949ZM33.1617 33.5987C33.1347 33.7289 33.1153 33.8604 33.0665 33.9852C33.1147 33.8593 33.1358 33.7291 33.1617 33.5987ZM33.0665 33.9852C33.05 34.028 33.0348 34.0715 33.0156 34.1135C33.0354 34.071 33.0495 34.0285 33.0665 33.9852ZM33.0156 34.1135C32.9341 34.2906 32.8205 34.4528 32.6956 34.6095C32.7179 34.5847 32.7679 34.5455 32.7819 34.5259C32.8765 34.3947 32.9515 34.2553 33.0156 34.1135Z" fill="#2A5C1E"/>
<path fill-rule="evenodd" clip-rule="evenodd" d="M5.66719 32.7859C4.69462 31.7203 4.80079 30.04 5.90424 29.0329L9.25652 26.0466C10.36 25.0396 16.3194 21.1114 17.292 22.1771C18.2645 23.2428 13.4745 29.3194 12.371 30.3264L9.42624 32.8922C8.32278 33.8992 6.63976 33.8517 5.66719 32.7859Z" fill="#E7B200"/>
<path d="M16.6654 21.9644C16.472 21.9752 16.2757 22.0204 16.1161 22.0609C15.2845 22.2714 14.4993 22.6673 13.7444 23.0666C12.8707 23.529 12.0215 24.0394 11.1948 24.5809C10.6317 24.9497 10.0723 25.3298 9.54311 25.7463C9.24536 25.9807 8.96911 26.241 8.68574 26.4923C8.27136 26.8599 7.85651 27.2266 7.4425 27.5946C7.07611 27.9202 6.71019 28.2486 6.34392 28.5744C6.16268 28.7356 5.97598 28.8916 5.80199 29.0606C5.03073 29.8099 4.73821 30.979 5.11909 31.9926C5.20223 32.2136 5.11826 31.9894 5.62753 32.8203C5.64736 32.8427 5.67942 32.8475 5.70187 32.8277C5.70389 32.8258 5.70009 32.8224 5.70187 32.8203C5.73584 32.8551 5.84297 32.9641 5.92444 33.0318C6.01363 33.1059 6.10805 33.1749 6.20662 33.2359C6.25259 33.2646 6.30734 33.2736 6.35508 33.299C6.13109 33.1641 5.75389 32.8603 5.70187 32.8166C5.71612 32.7966 5.72622 32.7689 5.70923 32.7498C5.49237 32.4767 5.55805 32.5777 5.49023 32.4788C5.4261 32.3853 5.37016 32.2871 5.31956 32.1857C5.07028 31.6854 4.99593 31.1079 5.10056 30.56C5.18108 30.1381 5.36565 29.7357 5.63132 29.3984C5.83144 29.1442 6.08513 28.9409 6.32539 28.7265C6.59059 28.4898 6.85437 28.2545 7.11958 28.0177C7.63229 27.56 8.14381 27.1025 8.65605 26.6444C8.96697 26.3665 9.2722 26.0764 9.59881 25.8168C10.0645 25.4468 10.5559 25.1083 11.05 24.7776C11.6565 24.3716 12.2749 23.9835 12.9057 23.6159C13.5327 23.2506 14.171 22.9032 14.8319 22.6027C15.2516 22.412 15.6836 22.2352 16.1309 22.1203C16.2032 22.1017 16.2885 22.079 16.3648 22.0646C16.655 22.0096 17.1441 21.958 17.3222 22.265C17.4913 22.5561 17.3423 23.0219 17.2407 23.3116C16.9557 24.1232 16.4921 24.8767 16.0307 25.5979C15.4355 26.5282 14.7876 27.422 14.1082 28.2923C13.6183 28.9199 13.1181 29.549 12.5643 30.122C12.3859 30.3067 12.1896 30.4692 11.9964 30.6379C11.782 30.8253 11.5651 31.0147 11.3506 31.2021C10.7395 31.7362 10.1352 32.2751 9.52089 32.8054C9.58063 32.7532 9.64643 32.7091 9.70641 32.657C9.98289 32.4168 10.2614 32.1771 10.5378 31.937C10.9678 31.5635 11.3956 31.1896 11.8257 30.8161C12.0645 30.6086 12.3116 30.4101 12.5346 30.1852C13.0245 29.6907 13.4687 29.1461 13.9041 28.6041C14.4788 27.8886 15.0303 27.1509 15.5519 26.3959C15.9427 25.8301 16.3154 25.2537 16.6542 24.6551C16.8952 24.2297 17.1249 23.7919 17.2889 23.3302C17.4155 22.9735 17.615 22.3175 17.1998 22.0683C17.0483 21.9773 16.8587 21.9536 16.6654 21.9644ZM9.52089 32.8054C9.44037 32.8758 9.35213 32.9359 9.26852 33.0021C9.29477 32.9812 9.32826 32.9722 9.35391 32.9502C9.40985 32.9022 9.46508 32.8536 9.52089 32.8054ZM9.26852 33.0021C9.10415 33.1327 8.92897 33.2472 8.74144 33.3362C8.82386 33.2971 8.91187 33.272 8.99013 33.2249C9.09263 33.163 9.17529 33.0758 9.26852 33.0021ZM8.74144 33.3362C8.70581 33.3532 8.67018 33.3691 8.63384 33.3844C8.6703 33.369 8.70557 33.3532 8.74144 33.3362ZM8.63384 33.3844C8.44405 33.4647 8.24571 33.5225 8.04369 33.5589C8.24797 33.5228 8.44286 33.4653 8.63384 33.3844ZM8.04369 33.5589C7.98811 33.5687 7.93288 33.5785 7.87671 33.5849C7.93324 33.5782 7.98763 33.569 8.04369 33.5589ZM7.87671 33.5849C7.70426 33.6051 7.53039 33.598 7.35711 33.5849C7.4615 33.5937 7.564 33.6218 7.66887 33.6182C7.73929 33.6159 7.80675 33.5927 7.87671 33.5849ZM7.35711 33.5849C7.24273 33.5751 7.12765 33.5722 7.01566 33.5477C7.12896 33.5716 7.24214 33.5761 7.35711 33.5849ZM7.01566 33.5477C6.95853 33.5357 6.9014 33.5266 6.84487 33.5106C6.90152 33.527 6.95805 33.5352 7.01566 33.5477ZM6.84487 33.5106C6.67349 33.461 6.51292 33.3832 6.35508 33.299C6.37729 33.3124 6.41529 33.3461 6.43299 33.3547C6.56648 33.4192 6.70473 33.471 6.84487 33.5106Z" fill="#2A5C1E"/>
<path fill-rule="evenodd" clip-rule="evenodd" d="M19.1361 38.9579C17.6931 38.9783 16.5113 37.7569 16.4965 36.2299L16.5056 31.6404C16.4907 30.1136 17.5363 22.8919 18.9792 22.8716C20.4221 22.8512 21.758 30.6367 21.7729 32.1637L21.7219 36.1561C21.7367 37.6831 20.5791 38.9375 19.1361 38.9579Z" fill="#E7B200"/>
<path d="M19.0059 22.8431C18.9515 22.8403 18.8941 22.8478 18.8362 22.8664C18.4985 22.9747 18.261 23.3913 18.1084 23.6902C17.7109 24.4688 17.4808 25.3404 17.2751 26.1885C17.0371 27.1702 16.8531 28.1672 16.7053 29.1667C16.6047 29.8475 16.516 30.5316 16.4737 31.2186C16.4497 31.6053 16.4594 31.9918 16.4578 32.3791C16.4555 32.9453 16.4525 33.511 16.4508 34.0772C16.4493 34.5783 16.4472 35.0803 16.4458 35.5814C16.4452 35.8293 16.4376 36.0805 16.4476 36.3282C16.4919 37.4262 17.1669 38.4407 18.1766 38.8373C18.3966 38.9237 18.1783 38.8383 19.1373 39.0127C19.1672 39.0128 19.1905 38.9869 19.1906 38.9565C19.2452 38.9537 19.3892 38.9453 19.4911 38.9294C19.6058 38.9115 19.7186 38.8825 19.8298 38.8486C19.8754 38.8346 19.9135 38.8038 19.9581 38.7874C19.7029 38.8649 19.2552 38.9411 19.1836 38.952C19.1794 38.926 19.1625 38.9022 19.1358 38.9022C18.7876 38.8826 18.9063 38.8983 18.7873 38.883C18.6748 38.8687 18.5635 38.846 18.4541 38.8158C17.9152 38.667 17.4368 38.33 17.0981 37.8782C16.8373 37.5303 16.6619 37.119 16.5875 36.6871C16.5316 36.3616 16.5468 36.0299 16.5472 35.7007C16.5477 35.3373 16.5491 34.975 16.5494 34.6116C16.55 33.9091 16.5513 33.204 16.5515 32.5015C16.5515 32.0752 16.5383 31.6486 16.5627 31.2226C16.5974 30.6155 16.6721 30.0094 16.7551 29.4073C16.8569 28.6681 16.9804 27.9317 17.127 27.2001C17.2728 26.4727 17.4382 25.75 17.655 25.0408C17.7925 24.5906 17.9493 24.1378 18.1619 23.7177C18.1963 23.6498 18.2411 23.5715 18.2812 23.5035C18.4339 23.2442 18.7158 22.837 19.0635 22.9091C19.3931 22.9775 19.6413 23.4067 19.7894 23.6811C20.2045 24.4496 20.4607 25.3138 20.6906 26.1559C20.9872 27.2421 21.2195 28.347 21.4152 29.4569C21.5563 30.2574 21.6894 31.0658 21.7472 31.8782C21.765 32.1268 21.7592 32.3763 21.7565 32.6254C21.7526 32.9652 21.7496 33.3019 21.7458 33.6416C21.7359 34.511 21.7323 35.3827 21.7148 36.2519C21.7099 36.4992 21.6628 36.7386 21.5958 36.9729C21.6208 36.8853 21.6616 36.803 21.6782 36.7134C21.7384 36.3872 21.7299 36.0582 21.7346 35.7279C21.7396 35.3771 21.7436 35.0249 21.7486 34.6741C21.7569 34.09 21.7666 33.5083 21.7749 32.9242C21.7797 32.5975 21.7946 32.2677 21.7753 31.9416C21.7334 31.2313 21.6234 30.524 21.5097 29.8233C21.3597 28.8984 21.1798 27.9785 20.9648 27.0673C20.8036 26.3847 20.6212 25.7026 20.401 25.0373C20.2445 24.5644 20.0713 24.0934 19.8365 23.6548C19.6777 23.3582 19.3864 22.8627 19.0059 22.8431ZM21.5958 36.9729C21.5838 37.0151 21.5727 37.0575 21.5587 37.0991C21.5729 37.0572 21.5836 37.0156 21.5958 36.9729ZM21.5587 37.0991C21.4895 37.3052 21.3964 37.5043 21.2837 37.6884C21.3983 37.5026 21.4891 37.3067 21.5587 37.0991ZM21.2837 37.6884C21.2621 37.7233 21.2418 37.759 21.2186 37.7931C21.2418 37.7587 21.262 37.7236 21.2837 37.6884ZM21.2186 37.7931C21.1089 37.9557 20.9749 38.0962 20.8337 38.2317C20.9191 38.1512 21.0184 38.0868 21.0928 37.9954C21.143 37.9338 21.1739 37.8587 21.2186 37.7931ZM20.8337 38.2317C20.7574 38.3037 20.6867 38.3815 20.6028 38.4439C20.687 38.3804 20.7578 38.3046 20.8337 38.2317ZM20.6028 38.4439C20.559 38.4768 20.5172 38.5126 20.4712 38.5428C20.5176 38.5126 20.5583 38.4769 20.6028 38.4439ZM20.4712 38.5428C20.3113 38.6468 20.1366 38.7215 19.9581 38.7874C19.9899 38.7777 20.0501 38.7687 20.0722 38.7593C20.2131 38.6994 20.3452 38.6259 20.4712 38.5428Z" fill="#2A5C1E"/>
<path fill-rule="evenodd" clip-rule="evenodd" d="M19.6154 16.0787C21.3413 16.0787 22.7405 17.4779 22.7405 19.2038C22.7405 20.9297 21.3413 22.3287 19.6154 22.3287C17.8896 22.3287 16.4904 20.9297 16.4904 19.2038C16.4904 17.4779 17.8896 16.0787 19.6154 16.0787Z" fill="#EDC655" stroke="black" stroke-width="0.00118766" stroke-miterlimit="10" stroke-linecap="round" stroke-linejoin="round"/>
</svg>
