<?xml version="1.0"?><svg xmlns="http://www.w3.org/2000/svg" xmlns:xlink="http://www.w3.org/1999/xlink" id="Layer_1" style="enable-background:new 0 0 512 512;" version="1.1" viewBox="0 0 512 512" xml:space="preserve"><style type="text/css">
	.st0{fill:#4863AE;}
	.st1{fill-rule:evenodd;clip-rule:evenodd;fill:#FFFFFF;}
</style><g><path class="st0" d="M512,397.1c0,63.5-51.4,114.9-114.9,114.9H114.9C51.5,512,0,460.6,0,397.1V114.9C0,51.4,51.5,0,114.9,0h282.2   C460.6,0,512,51.4,512,114.9V397.1z"/><g><path class="st1" d="M114.5,347.7c0-61.2,0-122.3,0-183.4c0.3,0,0.6-0.1,0.9-0.1c29.7,0,59.4-0.1,89.2,0.1    c9.8,0,19.4,1.6,28.4,5.6c14.7,6.6,23.2,17.9,25.5,33.9c1.2,8.5,0.8,16.9-2.1,25c-2.9,8.3-8.6,14.2-16.1,18.5    c-1.1,0.6-2.3,1.3-3.5,2c0.6,0.3,1.1,0.5,1.6,0.6c14.3,5.8,22.8,16.3,25.6,31.3c2.3,12.2,1.2,24.2-4.4,35.5    c-8.1,16.3-21.2,26.1-39.2,29.1c-7.8,1.3-15.5,1.9-23.4,1.9c-26.9,0-53.8,0-80.8,0C115.6,347.7,115.1,347.7,114.5,347.7z     M156.9,315.8c0.4,0,0.7,0.1,1,0.1c12.9,0,25.7,0.1,38.6-0.1c3.9-0.1,7.8-0.4,11.7-1.2c9.2-1.8,15.1-7.4,17.2-16.7    c0.8-3.4,1-6.9,0.8-10.3c-0.4-8.8-5.1-15.4-13.5-18.4c-4.3-1.5-8.7-2.2-13.2-2.2c-14-0.1-28-0.1-42-0.1c-0.2,0-0.3,0.1-0.6,0.1    C156.9,283.4,156.9,299.5,156.9,315.8z M156.9,236.6c0.3,0,0.5,0,0.8,0c13,0,26.1,0.1,39.2,0c6,0,11.7-1,17.1-3.9    c4-2.1,6.5-5.3,7.7-9.6c1-3.6,1.1-7.3,0.7-11.1c-0.8-7-4.9-11.8-11.7-13.7c-6-1.7-12.1-2.2-18.2-2.2c-11.4-0.1-22.9,0-34.3,0    c-0.4,0-0.7,0-1.1,0C156.9,209.7,156.9,223.1,156.9,236.6z"/><path class="st1" d="M409.4,286c-31.9,0-63.7,0-95.7,0c0.2,1.9,0.3,3.8,0.6,5.7c0.5,3.7,1.4,7.3,3,10.7    c4.3,8.9,11.6,13.7,21.1,15.6c5.3,1.1,10.7,1.1,16-0.1c7.9-1.7,13.7-6.2,17.5-13.2c0.5-0.8,0.9-1,1.8-1c10.9,0,21.7,0,32.6,0    c0.4,0,0.8,0,1.4,0c-0.4,1.8-0.8,3.6-1.2,5.2c-2,6.7-5.9,12.2-10.5,17.3c-9.9,11.2-22.4,17.3-37,19.4c-11.5,1.7-23,1.4-34.2-1.8    c-11.7-3.4-22.1-9.2-30.6-18.1c-6.8-7.2-10.7-15.9-12.8-25.5c-3.6-16.9-3.6-33.8,1.5-50.3c7.3-23.4,23.5-37.1,47.4-41.5    c14.8-2.8,29.4-1.5,43.4,4.3c13,5.3,22,14.9,28.4,27.2c4.1,8,6.3,16.6,6.8,25.5c0.4,6.5,0.4,13.1,0.6,19.7    C409.4,285.3,409.4,285.6,409.4,286z M373.6,263.3c0-0.2,0.1-0.4,0-0.6c-0.1-1.3-0.3-2.5-0.5-3.8c-1.7-10.1-7.1-17.3-16.7-21.2    c-4.9-2-10.1-2.5-15.4-2.1c-10.9,0.7-18.8,6-23.2,16c-1.2,2.7-1.9,5.6-2.8,8.4c-0.3,1.1-0.4,2.2-0.6,3.3    C334.3,263.3,354,263.3,373.6,263.3z"/><path class="st1" d="M307,193.1c0-7.1,0-14.1,0-21.2c24.6,0,49.1,0,73.7,0c0,7,0,14,0,21.2C356.2,193.1,331.7,193.1,307,193.1z"/>
</g></g></svg>
